<?xml version="1.0" encoding="utf-8" standalone="no"?>
<!DOCTYPE svg PUBLIC "-//W3C//DTD SVG 1.1//EN"
  "http://www.w3.org/Graphics/SVG/1.1/DTD/svg11.dtd">
<svg xmlns:xlink="http://www.w3.org/1999/xlink" width="720pt" height="504pt" viewBox="0 0 720 504" xmlns="http://www.w3.org/2000/svg" version="1.1">
 <metadata>
  <rdf:RDF xmlns:dc="http://purl.org/dc/elements/1.1/" xmlns:cc="http://creativecommons.org/ns#" xmlns:rdf="http://www.w3.org/1999/02/22-rdf-syntax-ns#">
   <cc:Work>
    <dc:type rdf:resource="http://purl.org/dc/dcmitype/StillImage"/>
    <dc:date>2025-11-22T02:47:22.692909</dc:date>
    <dc:format>image/svg+xml</dc:format>
    <dc:creator>
     <cc:Agent>
      <dc:title>Matplotlib v3.10.5, https://matplotlib.org/</dc:title>
     </cc:Agent>
    </dc:creator>
   </cc:Work>
  </rdf:RDF>
 </metadata>
 <defs>
  <style type="text/css">*{stroke-linejoin: round; stroke-linecap: butt}</style>
 </defs>
 <g id="figure_1">
  <g id="patch_1">
   <path d="M 0 504 
L 720 504 
L 720 0 
L 0 0 
z
" style="fill: #ffffff"/>
  </g>
  <g id="axes_1">
   <g id="patch_2">
    <path d="M 90 245.28 
L 648 245.28 
L 648 60.48 
L 90 60.48 
z
" style="fill: #ffffff"/>
   </g>
   <g id="patch_3">
    <path d="M 115.363636 245.28 
L 128.045455 245.28 
L 128.045455 226.8 
L 115.363636 226.8 
z
" clip-path="url(#p877a1c9c78)" style="fill: #000080; fill-opacity: 0.65; stroke: #000000; stroke-width: 1.5; stroke-linejoin: miter"/>
   </g>
   <g id="patch_4">
    <path d="M 128.045455 245.28 
L 140.727273 245.28 
L 140.727273 143.64 
L 128.045455 143.64 
z
" clip-path="url(#p877a1c9c78)" style="fill: #000080; fill-opacity: 0.65; stroke: #000000; stroke-width: 1.5; stroke-linejoin: miter"/>
   </g>
   <g id="patch_5">
    <path d="M 140.727273 245.28 
L 153.409091 245.28 
L 153.409091 162.12 
L 140.727273 162.12 
z
" clip-path="url(#p877a1c9c78)" style="fill: #000080; fill-opacity: 0.65; stroke: #000000; stroke-width: 1.5; stroke-linejoin: miter"/>
   </g>
   <g id="patch_6">
    <path d="M 153.409091 245.28 
L 166.090909 245.28 
L 166.090909 189.84 
L 153.409091 189.84 
z
" clip-path="url(#p877a1c9c78)" style="fill: #000080; fill-opacity: 0.65; stroke: #000000; stroke-width: 1.5; stroke-linejoin: miter"/>
   </g>
   <g id="patch_7">
    <path d="M 166.090909 245.28 
L 178.772727 245.28 
L 178.772727 171.36 
L 166.090909 171.36 
z
" clip-path="url(#p877a1c9c78)" style="fill: #000080; fill-opacity: 0.65; stroke: #000000; stroke-width: 1.5; stroke-linejoin: miter"/>
   </g>
   <g id="patch_8">
    <path d="M 178.772727 245.28 
L 191.454545 245.28 
L 191.454545 143.64 
L 178.772727 143.64 
z
" clip-path="url(#p877a1c9c78)" style="fill: #000080; fill-opacity: 0.65; stroke: #000000; stroke-width: 1.5; stroke-linejoin: miter"/>
   </g>
   <g id="patch_9">
    <path d="M 191.454545 245.28 
L 204.136364 245.28 
L 204.136364 69.72 
L 191.454545 69.72 
z
" clip-path="url(#p877a1c9c78)" style="fill: #000080; fill-opacity: 0.65; stroke: #000000; stroke-width: 1.5; stroke-linejoin: miter"/>
   </g>
   <g id="patch_10">
    <path d="M 204.136364 245.28 
L 216.818182 245.28 
L 216.818182 180.6 
L 204.136364 180.6 
z
" clip-path="url(#p877a1c9c78)" style="fill: #000080; fill-opacity: 0.65; stroke: #000000; stroke-width: 1.5; stroke-linejoin: miter"/>
   </g>
   <g id="patch_11">
    <path d="M 216.818182 245.28 
L 229.5 245.28 
L 229.5 162.12 
L 216.818182 162.12 
z
" clip-path="url(#p877a1c9c78)" style="fill: #000080; fill-opacity: 0.65; stroke: #000000; stroke-width: 1.5; stroke-linejoin: miter"/>
   </g>
   <g id="patch_12">
    <path d="M 229.5 245.28 
L 242.181818 245.28 
L 242.181818 162.12 
L 229.5 162.12 
z
" clip-path="url(#p877a1c9c78)" style="fill: #000080; fill-opacity: 0.65; stroke: #000000; stroke-width: 1.5; stroke-linejoin: miter"/>
   </g>
   <g id="patch_13">
    <path d="M 242.181818 245.28 
L 254.863636 245.28 
L 254.863636 134.4 
L 242.181818 134.4 
z
" clip-path="url(#p877a1c9c78)" style="fill: #000080; fill-opacity: 0.65; stroke: #000000; stroke-width: 1.5; stroke-linejoin: miter"/>
   </g>
   <g id="patch_14">
    <path d="M 254.863636 245.28 
L 267.545455 245.28 
L 267.545455 217.56 
L 254.863636 217.56 
z
" clip-path="url(#p877a1c9c78)" style="fill: #000080; fill-opacity: 0.65; stroke: #000000; stroke-width: 1.5; stroke-linejoin: miter"/>
   </g>
   <g id="patch_15">
    <path d="M 267.545455 245.28 
L 280.227273 245.28 
L 280.227273 208.32 
L 267.545455 208.32 
z
" clip-path="url(#p877a1c9c78)" style="fill: #000080; fill-opacity: 0.65; stroke: #000000; stroke-width: 1.5; stroke-linejoin: miter"/>
   </g>
   <g id="patch_16">
    <path d="M 280.227273 245.28 
L 292.909091 245.28 
L 292.909091 236.04 
L 280.227273 236.04 
z
" clip-path="url(#p877a1c9c78)" style="fill: #000080; fill-opacity: 0.65; stroke: #000000; stroke-width: 1.5; stroke-linejoin: miter"/>
   </g>
   <g id="patch_17">
    <path d="M 292.909091 245.28 
L 305.590909 245.28 
L 305.590909 199.08 
L 292.909091 199.08 
z
" clip-path="url(#p877a1c9c78)" style="fill: #000080; fill-opacity: 0.65; stroke: #000000; stroke-width: 1.5; stroke-linejoin: miter"/>
   </g>
   <g id="patch_18">
    <path d="M 305.590909 245.28 
L 318.272727 245.28 
L 318.272727 245.28 
L 305.590909 245.28 
z
" clip-path="url(#p877a1c9c78)" style="fill: #000080; fill-opacity: 0.65; stroke: #000000; stroke-width: 1.5; stroke-linejoin: miter"/>
   </g>
   <g id="patch_19">
    <path d="M 318.272727 245.28 
L 330.954545 245.28 
L 330.954545 226.8 
L 318.272727 226.8 
z
" clip-path="url(#p877a1c9c78)" style="fill: #000080; fill-opacity: 0.65; stroke: #000000; stroke-width: 1.5; stroke-linejoin: miter"/>
   </g>
   <g id="patch_20">
    <path d="M 330.954545 245.28 
L 343.636364 245.28 
L 343.636364 208.32 
L 330.954545 208.32 
z
" clip-path="url(#p877a1c9c78)" style="fill: #000080; fill-opacity: 0.65; stroke: #000000; stroke-width: 1.5; stroke-linejoin: miter"/>
   </g>
   <g id="patch_21">
    <path d="M 343.636364 245.28 
L 356.318182 245.28 
L 356.318182 226.8 
L 343.636364 226.8 
z
" clip-path="url(#p877a1c9c78)" style="fill: #000080; fill-opacity: 0.65; stroke: #000000; stroke-width: 1.5; stroke-linejoin: miter"/>
   </g>
   <g id="patch_22">
    <path d="M 356.318182 245.28 
L 369 245.28 
L 369 245.28 
L 356.318182 245.28 
z
" clip-path="url(#p877a1c9c78)" style="fill: #000080; fill-opacity: 0.65; stroke: #000000; stroke-width: 1.5; stroke-linejoin: miter"/>
   </g>
   <g id="patch_23">
    <path d="M 369 245.28 
L 381.681818 245.28 
L 381.681818 245.28 
L 369 245.28 
z
" clip-path="url(#p877a1c9c78)" style="fill: #000080; fill-opacity: 0.65; stroke: #000000; stroke-width: 1.5; stroke-linejoin: miter"/>
   </g>
   <g id="patch_24">
    <path d="M 381.681818 245.28 
L 394.363636 245.28 
L 394.363636 245.28 
L 381.681818 245.28 
z
" clip-path="url(#p877a1c9c78)" style="fill: #000080; fill-opacity: 0.65; stroke: #000000; stroke-width: 1.5; stroke-linejoin: miter"/>
   </g>
   <g id="patch_25">
    <path d="M 394.363636 245.28 
L 407.045455 245.28 
L 407.045455 245.28 
L 394.363636 245.28 
z
" clip-path="url(#p877a1c9c78)" style="fill: #000080; fill-opacity: 0.65; stroke: #000000; stroke-width: 1.5; stroke-linejoin: miter"/>
   </g>
   <g id="patch_26">
    <path d="M 407.045455 245.28 
L 419.727273 245.28 
L 419.727273 245.28 
L 407.045455 245.28 
z
" clip-path="url(#p877a1c9c78)" style="fill: #000080; fill-opacity: 0.65; stroke: #000000; stroke-width: 1.5; stroke-linejoin: miter"/>
   </g>
   <g id="patch_27">
    <path d="M 419.727273 245.28 
L 432.409091 245.28 
L 432.409091 236.04 
L 419.727273 236.04 
z
" clip-path="url(#p877a1c9c78)" style="fill: #000080; fill-opacity: 0.65; stroke: #000000; stroke-width: 1.5; stroke-linejoin: miter"/>
   </g>
   <g id="patch_28">
    <path d="M 432.409091 245.28 
L 445.090909 245.28 
L 445.090909 217.56 
L 432.409091 217.56 
z
" clip-path="url(#p877a1c9c78)" style="fill: #000080; fill-opacity: 0.65; stroke: #000000; stroke-width: 1.5; stroke-linejoin: miter"/>
   </g>
   <g id="patch_29">
    <path d="M 445.090909 245.28 
L 457.772727 245.28 
L 457.772727 236.04 
L 445.090909 236.04 
z
" clip-path="url(#p877a1c9c78)" style="fill: #000080; fill-opacity: 0.65; stroke: #000000; stroke-width: 1.5; stroke-linejoin: miter"/>
   </g>
   <g id="patch_30">
    <path d="M 457.772727 245.28 
L 470.454545 245.28 
L 470.454545 236.04 
L 457.772727 236.04 
z
" clip-path="url(#p877a1c9c78)" style="fill: #000080; fill-opacity: 0.65; stroke: #000000; stroke-width: 1.5; stroke-linejoin: miter"/>
   </g>
   <g id="patch_31">
    <path d="M 470.454545 245.28 
L 483.136364 245.28 
L 483.136364 245.28 
L 470.454545 245.28 
z
" clip-path="url(#p877a1c9c78)" style="fill: #000080; fill-opacity: 0.65; stroke: #000000; stroke-width: 1.5; stroke-linejoin: miter"/>
   </g>
   <g id="patch_32">
    <path d="M 483.136364 245.28 
L 495.818182 245.28 
L 495.818182 245.28 
L 483.136364 245.28 
z
" clip-path="url(#p877a1c9c78)" style="fill: #000080; fill-opacity: 0.65; stroke: #000000; stroke-width: 1.5; stroke-linejoin: miter"/>
   </g>
   <g id="patch_33">
    <path d="M 495.818182 245.28 
L 508.5 245.28 
L 508.5 245.28 
L 495.818182 245.28 
z
" clip-path="url(#p877a1c9c78)" style="fill: #000080; fill-opacity: 0.65; stroke: #000000; stroke-width: 1.5; stroke-linejoin: miter"/>
   </g>
   <g id="patch_34">
    <path d="M 508.5 245.28 
L 521.181818 245.28 
L 521.181818 245.28 
L 508.5 245.28 
z
" clip-path="url(#p877a1c9c78)" style="fill: #000080; fill-opacity: 0.65; stroke: #000000; stroke-width: 1.5; stroke-linejoin: miter"/>
   </g>
   <g id="patch_35">
    <path d="M 521.181818 245.28 
L 533.863636 245.28 
L 533.863636 245.28 
L 521.181818 245.28 
z
" clip-path="url(#p877a1c9c78)" style="fill: #000080; fill-opacity: 0.65; stroke: #000000; stroke-width: 1.5; stroke-linejoin: miter"/>
   </g>
   <g id="patch_36">
    <path d="M 533.863636 245.28 
L 546.545455 245.28 
L 546.545455 245.28 
L 533.863636 245.28 
z
" clip-path="url(#p877a1c9c78)" style="fill: #000080; fill-opacity: 0.65; stroke: #000000; stroke-width: 1.5; stroke-linejoin: miter"/>
   </g>
   <g id="patch_37">
    <path d="M 546.545455 245.28 
L 559.227273 245.28 
L 559.227273 245.28 
L 546.545455 245.28 
z
" clip-path="url(#p877a1c9c78)" style="fill: #000080; fill-opacity: 0.65; stroke: #000000; stroke-width: 1.5; stroke-linejoin: miter"/>
   </g>
   <g id="patch_38">
    <path d="M 559.227273 245.28 
L 571.909091 245.28 
L 571.909091 245.28 
L 559.227273 245.28 
z
" clip-path="url(#p877a1c9c78)" style="fill: #000080; fill-opacity: 0.65; stroke: #000000; stroke-width: 1.5; stroke-linejoin: miter"/>
   </g>
   <g id="patch_39">
    <path d="M 571.909091 245.28 
L 584.590909 245.28 
L 584.590909 245.28 
L 571.909091 245.28 
z
" clip-path="url(#p877a1c9c78)" style="fill: #000080; fill-opacity: 0.65; stroke: #000000; stroke-width: 1.5; stroke-linejoin: miter"/>
   </g>
   <g id="patch_40">
    <path d="M 584.590909 245.28 
L 597.272727 245.28 
L 597.272727 245.28 
L 584.590909 245.28 
z
" clip-path="url(#p877a1c9c78)" style="fill: #000080; fill-opacity: 0.65; stroke: #000000; stroke-width: 1.5; stroke-linejoin: miter"/>
   </g>
   <g id="patch_41">
    <path d="M 597.272727 245.28 
L 609.954545 245.28 
L 609.954545 245.28 
L 597.272727 245.28 
z
" clip-path="url(#p877a1c9c78)" style="fill: #000080; fill-opacity: 0.65; stroke: #000000; stroke-width: 1.5; stroke-linejoin: miter"/>
   </g>
   <g id="patch_42">
    <path d="M 609.954545 245.28 
L 622.636364 245.28 
L 622.636364 245.28 
L 609.954545 245.28 
z
" clip-path="url(#p877a1c9c78)" style="fill: #000080; fill-opacity: 0.65; stroke: #000000; stroke-width: 1.5; stroke-linejoin: miter"/>
   </g>
   <g id="matplotlib.axis_1">
    <g id="xtick_1">
     <g id="line2d_1">
      <defs>
       <path id="mf5471ad9b1" d="M 0 0 
L 0 3.5 
" style="stroke: #000000; stroke-width: 0.8"/>
      </defs>
      <g>
       <use xlink:href="#mf5471ad9b1" x="115.363636" y="245.28" style="stroke: #000000; stroke-width: 0.8"/>
      </g>
     </g>
    </g>
    <g id="xtick_2">
     <g id="line2d_2">
      <g>
       <use xlink:href="#mf5471ad9b1" x="178.772727" y="245.28" style="stroke: #000000; stroke-width: 0.8"/>
      </g>
     </g>
    </g>
    <g id="xtick_3">
     <g id="line2d_3">
      <g>
       <use xlink:href="#mf5471ad9b1" x="242.181818" y="245.28" style="stroke: #000000; stroke-width: 0.8"/>
      </g>
     </g>
    </g>
    <g id="xtick_4">
     <g id="line2d_4">
      <g>
       <use xlink:href="#mf5471ad9b1" x="305.590909" y="245.28" style="stroke: #000000; stroke-width: 0.8"/>
      </g>
     </g>
    </g>
    <g id="xtick_5">
     <g id="line2d_5">
      <g>
       <use xlink:href="#mf5471ad9b1" x="369" y="245.28" style="stroke: #000000; stroke-width: 0.8"/>
      </g>
     </g>
    </g>
    <g id="xtick_6">
     <g id="line2d_6">
      <g>
       <use xlink:href="#mf5471ad9b1" x="432.409091" y="245.28" style="stroke: #000000; stroke-width: 0.8"/>
      </g>
     </g>
    </g>
    <g id="xtick_7">
     <g id="line2d_7">
      <g>
       <use xlink:href="#mf5471ad9b1" x="495.818182" y="245.28" style="stroke: #000000; stroke-width: 0.8"/>
      </g>
     </g>
    </g>
    <g id="xtick_8">
     <g id="line2d_8">
      <g>
       <use xlink:href="#mf5471ad9b1" x="559.227273" y="245.28" style="stroke: #000000; stroke-width: 0.8"/>
      </g>
     </g>
    </g>
    <g id="xtick_9">
     <g id="line2d_9">
      <g>
       <use xlink:href="#mf5471ad9b1" x="622.636364" y="245.28" style="stroke: #000000; stroke-width: 0.8"/>
      </g>
     </g>
    </g>
   </g>
   <g id="matplotlib.axis_2">
    <g id="ytick_1">
     <g id="line2d_10">
      <defs>
       <path id="m6b6e507b75" d="M 0 0 
L -3.5 0 
" style="stroke: #000000; stroke-width: 0.8"/>
      </defs>
      <g>
       <use xlink:href="#m6b6e507b75" x="90" y="245.28" style="stroke: #000000; stroke-width: 0.8"/>
      </g>
     </g>
     <g id="text_1">
      <!-- 0 -->
      <g transform="translate(74.0925 250.598906) scale(0.14 -0.14)">
       <defs>
        <path id="DejaVuSans-30" d="M 2034 4250 
Q 1547 4250 1301 3770 
Q 1056 3291 1056 2328 
Q 1056 1369 1301 889 
Q 1547 409 2034 409 
Q 2525 409 2770 889 
Q 3016 1369 3016 2328 
Q 3016 3291 2770 3770 
Q 2525 4250 2034 4250 
z
M 2034 4750 
Q 2819 4750 3233 4129 
Q 3647 3509 3647 2328 
Q 3647 1150 3233 529 
Q 2819 -91 2034 -91 
Q 1250 -91 836 529 
Q 422 1150 422 2328 
Q 422 3509 836 4129 
Q 1250 4750 2034 4750 
z
" transform="scale(0.015625)"/>
       </defs>
       <use xlink:href="#DejaVuSans-30"/>
      </g>
     </g>
    </g>
    <g id="ytick_2">
     <g id="line2d_11">
      <g>
       <use xlink:href="#m6b6e507b75" x="90" y="152.88" style="stroke: #000000; stroke-width: 0.8"/>
      </g>
     </g>
     <g id="text_2">
      <!-- 10 -->
      <g transform="translate(65.185 158.198906) scale(0.14 -0.14)">
       <defs>
        <path id="DejaVuSans-31" d="M 794 531 
L 1825 531 
L 1825 4091 
L 703 3866 
L 703 4441 
L 1819 4666 
L 2450 4666 
L 2450 531 
L 3481 531 
L 3481 0 
L 794 0 
L 794 531 
z
" transform="scale(0.015625)"/>
       </defs>
       <use xlink:href="#DejaVuSans-31"/>
       <use xlink:href="#DejaVuSans-30" transform="translate(63.623047 0)"/>
      </g>
     </g>
    </g>
    <g id="ytick_3">
     <g id="line2d_12">
      <g>
       <use xlink:href="#m6b6e507b75" x="90" y="60.48" style="stroke: #000000; stroke-width: 0.8"/>
      </g>
     </g>
     <g id="text_3">
      <!-- 20 -->
      <g transform="translate(65.185 65.798906) scale(0.14 -0.14)">
       <defs>
        <path id="DejaVuSans-32" d="M 1228 531 
L 3431 531 
L 3431 0 
L 469 0 
L 469 531 
Q 828 903 1448 1529 
Q 2069 2156 2228 2338 
Q 2531 2678 2651 2914 
Q 2772 3150 2772 3378 
Q 2772 3750 2511 3984 
Q 2250 4219 1831 4219 
Q 1534 4219 1204 4116 
Q 875 4013 500 3803 
L 500 4441 
Q 881 4594 1212 4672 
Q 1544 4750 1819 4750 
Q 2544 4750 2975 4387 
Q 3406 4025 3406 3419 
Q 3406 3131 3298 2873 
Q 3191 2616 2906 2266 
Q 2828 2175 2409 1742 
Q 1991 1309 1228 531 
z
" transform="scale(0.015625)"/>
       </defs>
       <use xlink:href="#DejaVuSans-32"/>
       <use xlink:href="#DejaVuSans-30" transform="translate(63.623047 0)"/>
      </g>
     </g>
    </g>
    <g id="text_4">
     <!-- Number of Dairies -->
     <g transform="translate(57.8575 225.7) rotate(-90) scale(0.16 -0.16)">
      <defs>
       <path id="DejaVuSans-4e" d="M 628 4666 
L 1478 4666 
L 3547 763 
L 3547 4666 
L 4159 4666 
L 4159 0 
L 3309 0 
L 1241 3903 
L 1241 0 
L 628 0 
L 628 4666 
z
" transform="scale(0.015625)"/>
       <path id="DejaVuSans-75" d="M 544 1381 
L 544 3500 
L 1119 3500 
L 1119 1403 
Q 1119 906 1312 657 
Q 1506 409 1894 409 
Q 2359 409 2629 706 
Q 2900 1003 2900 1516 
L 2900 3500 
L 3475 3500 
L 3475 0 
L 2900 0 
L 2900 538 
Q 2691 219 2414 64 
Q 2138 -91 1772 -91 
Q 1169 -91 856 284 
Q 544 659 544 1381 
z
M 1991 3584 
L 1991 3584 
z
" transform="scale(0.015625)"/>
       <path id="DejaVuSans-6d" d="M 3328 2828 
Q 3544 3216 3844 3400 
Q 4144 3584 4550 3584 
Q 5097 3584 5394 3201 
Q 5691 2819 5691 2113 
L 5691 0 
L 5113 0 
L 5113 2094 
Q 5113 2597 4934 2840 
Q 4756 3084 4391 3084 
Q 3944 3084 3684 2787 
Q 3425 2491 3425 1978 
L 3425 0 
L 2847 0 
L 2847 2094 
Q 2847 2600 2669 2842 
Q 2491 3084 2119 3084 
Q 1678 3084 1418 2786 
Q 1159 2488 1159 1978 
L 1159 0 
L 581 0 
L 581 3500 
L 1159 3500 
L 1159 2956 
Q 1356 3278 1631 3431 
Q 1906 3584 2284 3584 
Q 2666 3584 2933 3390 
Q 3200 3197 3328 2828 
z
" transform="scale(0.015625)"/>
       <path id="DejaVuSans-62" d="M 3116 1747 
Q 3116 2381 2855 2742 
Q 2594 3103 2138 3103 
Q 1681 3103 1420 2742 
Q 1159 2381 1159 1747 
Q 1159 1113 1420 752 
Q 1681 391 2138 391 
Q 2594 391 2855 752 
Q 3116 1113 3116 1747 
z
M 1159 2969 
Q 1341 3281 1617 3432 
Q 1894 3584 2278 3584 
Q 2916 3584 3314 3078 
Q 3713 2572 3713 1747 
Q 3713 922 3314 415 
Q 2916 -91 2278 -91 
Q 1894 -91 1617 61 
Q 1341 213 1159 525 
L 1159 0 
L 581 0 
L 581 4863 
L 1159 4863 
L 1159 2969 
z
" transform="scale(0.015625)"/>
       <path id="DejaVuSans-65" d="M 3597 1894 
L 3597 1613 
L 953 1613 
Q 991 1019 1311 708 
Q 1631 397 2203 397 
Q 2534 397 2845 478 
Q 3156 559 3463 722 
L 3463 178 
Q 3153 47 2828 -22 
Q 2503 -91 2169 -91 
Q 1331 -91 842 396 
Q 353 884 353 1716 
Q 353 2575 817 3079 
Q 1281 3584 2069 3584 
Q 2775 3584 3186 3129 
Q 3597 2675 3597 1894 
z
M 3022 2063 
Q 3016 2534 2758 2815 
Q 2500 3097 2075 3097 
Q 1594 3097 1305 2825 
Q 1016 2553 972 2059 
L 3022 2063 
z
" transform="scale(0.015625)"/>
       <path id="DejaVuSans-72" d="M 2631 2963 
Q 2534 3019 2420 3045 
Q 2306 3072 2169 3072 
Q 1681 3072 1420 2755 
Q 1159 2438 1159 1844 
L 1159 0 
L 581 0 
L 581 3500 
L 1159 3500 
L 1159 2956 
Q 1341 3275 1631 3429 
Q 1922 3584 2338 3584 
Q 2397 3584 2469 3576 
Q 2541 3569 2628 3553 
L 2631 2963 
z
" transform="scale(0.015625)"/>
       <path id="DejaVuSans-20" transform="scale(0.015625)"/>
       <path id="DejaVuSans-6f" d="M 1959 3097 
Q 1497 3097 1228 2736 
Q 959 2375 959 1747 
Q 959 1119 1226 758 
Q 1494 397 1959 397 
Q 2419 397 2687 759 
Q 2956 1122 2956 1747 
Q 2956 2369 2687 2733 
Q 2419 3097 1959 3097 
z
M 1959 3584 
Q 2709 3584 3137 3096 
Q 3566 2609 3566 1747 
Q 3566 888 3137 398 
Q 2709 -91 1959 -91 
Q 1206 -91 779 398 
Q 353 888 353 1747 
Q 353 2609 779 3096 
Q 1206 3584 1959 3584 
z
" transform="scale(0.015625)"/>
       <path id="DejaVuSans-66" d="M 2375 4863 
L 2375 4384 
L 1825 4384 
Q 1516 4384 1395 4259 
Q 1275 4134 1275 3809 
L 1275 3500 
L 2222 3500 
L 2222 3053 
L 1275 3053 
L 1275 0 
L 697 0 
L 697 3053 
L 147 3053 
L 147 3500 
L 697 3500 
L 697 3744 
Q 697 4328 969 4595 
Q 1241 4863 1831 4863 
L 2375 4863 
z
" transform="scale(0.015625)"/>
       <path id="DejaVuSans-44" d="M 1259 4147 
L 1259 519 
L 2022 519 
Q 2988 519 3436 956 
Q 3884 1394 3884 2338 
Q 3884 3275 3436 3711 
Q 2988 4147 2022 4147 
L 1259 4147 
z
M 628 4666 
L 1925 4666 
Q 3281 4666 3915 4102 
Q 4550 3538 4550 2338 
Q 4550 1131 3912 565 
Q 3275 0 1925 0 
L 628 0 
L 628 4666 
z
" transform="scale(0.015625)"/>
       <path id="DejaVuSans-61" d="M 2194 1759 
Q 1497 1759 1228 1600 
Q 959 1441 959 1056 
Q 959 750 1161 570 
Q 1363 391 1709 391 
Q 2188 391 2477 730 
Q 2766 1069 2766 1631 
L 2766 1759 
L 2194 1759 
z
M 3341 1997 
L 3341 0 
L 2766 0 
L 2766 531 
Q 2569 213 2275 61 
Q 1981 -91 1556 -91 
Q 1019 -91 701 211 
Q 384 513 384 1019 
Q 384 1609 779 1909 
Q 1175 2209 1959 2209 
L 2766 2209 
L 2766 2266 
Q 2766 2663 2505 2880 
Q 2244 3097 1772 3097 
Q 1472 3097 1187 3025 
Q 903 2953 641 2809 
L 641 3341 
Q 956 3463 1253 3523 
Q 1550 3584 1831 3584 
Q 2591 3584 2966 3190 
Q 3341 2797 3341 1997 
z
" transform="scale(0.015625)"/>
       <path id="DejaVuSans-69" d="M 603 3500 
L 1178 3500 
L 1178 0 
L 603 0 
L 603 3500 
z
M 603 4863 
L 1178 4863 
L 1178 4134 
L 603 4134 
L 603 4863 
z
" transform="scale(0.015625)"/>
       <path id="DejaVuSans-73" d="M 2834 3397 
L 2834 2853 
Q 2591 2978 2328 3040 
Q 2066 3103 1784 3103 
Q 1356 3103 1142 2972 
Q 928 2841 928 2578 
Q 928 2378 1081 2264 
Q 1234 2150 1697 2047 
L 1894 2003 
Q 2506 1872 2764 1633 
Q 3022 1394 3022 966 
Q 3022 478 2636 193 
Q 2250 -91 1575 -91 
Q 1294 -91 989 -36 
Q 684 19 347 128 
L 347 722 
Q 666 556 975 473 
Q 1284 391 1588 391 
Q 1994 391 2212 530 
Q 2431 669 2431 922 
Q 2431 1156 2273 1281 
Q 2116 1406 1581 1522 
L 1381 1569 
Q 847 1681 609 1914 
Q 372 2147 372 2553 
Q 372 3047 722 3315 
Q 1072 3584 1716 3584 
Q 2034 3584 2315 3537 
Q 2597 3491 2834 3397 
z
" transform="scale(0.015625)"/>
      </defs>
      <use xlink:href="#DejaVuSans-4e"/>
      <use xlink:href="#DejaVuSans-75" transform="translate(74.804688 0)"/>
      <use xlink:href="#DejaVuSans-6d" transform="translate(138.183594 0)"/>
      <use xlink:href="#DejaVuSans-62" transform="translate(235.595703 0)"/>
      <use xlink:href="#DejaVuSans-65" transform="translate(299.072266 0)"/>
      <use xlink:href="#DejaVuSans-72" transform="translate(360.595703 0)"/>
      <use xlink:href="#DejaVuSans-20" transform="translate(401.708984 0)"/>
      <use xlink:href="#DejaVuSans-6f" transform="translate(433.496094 0)"/>
      <use xlink:href="#DejaVuSans-66" transform="translate(494.677734 0)"/>
      <use xlink:href="#DejaVuSans-20" transform="translate(529.882812 0)"/>
      <use xlink:href="#DejaVuSans-44" transform="translate(561.669922 0)"/>
      <use xlink:href="#DejaVuSans-61" transform="translate(638.671875 0)"/>
      <use xlink:href="#DejaVuSans-69" transform="translate(699.951172 0)"/>
      <use xlink:href="#DejaVuSans-72" transform="translate(727.734375 0)"/>
      <use xlink:href="#DejaVuSans-69" transform="translate(768.847656 0)"/>
      <use xlink:href="#DejaVuSans-65" transform="translate(796.630859 0)"/>
      <use xlink:href="#DejaVuSans-73" transform="translate(858.154297 0)"/>
     </g>
    </g>
   </g>
   <g id="line2d_13">
    <path d="M 147.068182 245.28 
L 147.068182 60.48 
" clip-path="url(#p877a1c9c78)" style="fill: none; stroke-dasharray: 11.1,4.8; stroke-dashoffset: 0; stroke: #000000; stroke-width: 3"/>
   </g>
   <g id="line2d_14">
    <path d="M 242.181818 245.28 
L 242.181818 60.48 
" clip-path="url(#p877a1c9c78)" style="fill: none; stroke-dasharray: 11.1,4.8; stroke-dashoffset: 0; stroke: #000000; stroke-width: 3"/>
   </g>
   <g id="patch_43">
    <path d="M 90 245.28 
L 90 60.48 
" style="fill: none; stroke: #000000; stroke-width: 0.8; stroke-linejoin: miter; stroke-linecap: square"/>
   </g>
   <g id="patch_44">
    <path d="M 648 245.28 
L 648 60.48 
" style="fill: none; stroke: #000000; stroke-width: 0.8; stroke-linejoin: miter; stroke-linecap: square"/>
   </g>
   <g id="patch_45">
    <path d="M 90 245.28 
L 648 245.28 
" style="fill: none; stroke: #000000; stroke-width: 0.8; stroke-linejoin: miter; stroke-linecap: square"/>
   </g>
   <g id="patch_46">
    <path d="M 90 60.48 
L 648 60.48 
" style="fill: none; stroke: #000000; stroke-width: 0.8; stroke-linejoin: miter; stroke-linecap: square"/>
   </g>
   <g id="text_5">
    <!-- 2023 -->
    <g transform="translate(101.16 83.397188) scale(0.18 -0.18)">
     <defs>
      <path id="DejaVuSans-Bold-32" d="M 1844 884 
L 3897 884 
L 3897 0 
L 506 0 
L 506 884 
L 2209 2388 
Q 2438 2594 2547 2791 
Q 2656 2988 2656 3200 
Q 2656 3528 2436 3728 
Q 2216 3928 1850 3928 
Q 1569 3928 1234 3808 
Q 900 3688 519 3450 
L 519 4475 
Q 925 4609 1322 4679 
Q 1719 4750 2100 4750 
Q 2938 4750 3402 4381 
Q 3866 4013 3866 3353 
Q 3866 2972 3669 2642 
Q 3472 2313 2841 1759 
L 1844 884 
z
" transform="scale(0.015625)"/>
      <path id="DejaVuSans-Bold-30" d="M 2944 2338 
Q 2944 3213 2780 3570 
Q 2616 3928 2228 3928 
Q 1841 3928 1675 3570 
Q 1509 3213 1509 2338 
Q 1509 1453 1675 1090 
Q 1841 728 2228 728 
Q 2613 728 2778 1090 
Q 2944 1453 2944 2338 
z
M 4147 2328 
Q 4147 1169 3647 539 
Q 3147 -91 2228 -91 
Q 1306 -91 806 539 
Q 306 1169 306 2328 
Q 306 3491 806 4120 
Q 1306 4750 2228 4750 
Q 3147 4750 3647 4120 
Q 4147 3491 4147 2328 
z
" transform="scale(0.015625)"/>
      <path id="DejaVuSans-Bold-33" d="M 2981 2516 
Q 3453 2394 3698 2092 
Q 3944 1791 3944 1325 
Q 3944 631 3412 270 
Q 2881 -91 1863 -91 
Q 1503 -91 1142 -33 
Q 781 25 428 141 
L 428 1069 
Q 766 900 1098 814 
Q 1431 728 1753 728 
Q 2231 728 2486 893 
Q 2741 1059 2741 1369 
Q 2741 1688 2480 1852 
Q 2219 2016 1709 2016 
L 1228 2016 
L 1228 2791 
L 1734 2791 
Q 2188 2791 2409 2933 
Q 2631 3075 2631 3366 
Q 2631 3634 2415 3781 
Q 2200 3928 1806 3928 
Q 1516 3928 1219 3862 
Q 922 3797 628 3669 
L 628 4550 
Q 984 4650 1334 4700 
Q 1684 4750 2022 4750 
Q 2931 4750 3382 4451 
Q 3834 4153 3834 3553 
Q 3834 3144 3618 2883 
Q 3403 2622 2981 2516 
z
" transform="scale(0.015625)"/>
     </defs>
     <use xlink:href="#DejaVuSans-Bold-32"/>
     <use xlink:href="#DejaVuSans-Bold-30" transform="translate(69.580078 0)"/>
     <use xlink:href="#DejaVuSans-Bold-32" transform="translate(139.160156 0)"/>
     <use xlink:href="#DejaVuSans-Bold-33" transform="translate(208.740234 0)"/>
    </g>
   </g>
  </g>
  <g id="axes_2">
   <g id="patch_47">
    <path d="M 90 448.56 
L 648 448.56 
L 648 263.76 
L 90 263.76 
z
" style="fill: #ffffff"/>
   </g>
   <g id="patch_48">
    <path d="M 115.363636 448.56 
L 128.045455 448.56 
L 128.045455 418.992 
L 115.363636 418.992 
z
" clip-path="url(#pbb46cc9991)" style="fill: #000080; fill-opacity: 0.65; stroke: #000000; stroke-width: 1.5; stroke-linejoin: miter"/>
   </g>
   <g id="patch_49">
    <path d="M 128.045455 448.56 
L 140.727273 448.56 
L 140.727273 356.16 
L 128.045455 356.16 
z
" clip-path="url(#pbb46cc9991)" style="fill: #000080; fill-opacity: 0.65; stroke: #000000; stroke-width: 1.5; stroke-linejoin: miter"/>
   </g>
   <g id="patch_50">
    <path d="M 140.727273 448.56 
L 153.409091 448.56 
L 153.409091 308.112 
L 140.727273 308.112 
z
" clip-path="url(#pbb46cc9991)" style="fill: #000080; fill-opacity: 0.65; stroke: #000000; stroke-width: 1.5; stroke-linejoin: miter"/>
   </g>
   <g id="patch_51">
    <path d="M 153.409091 448.56 
L 166.090909 448.56 
L 166.090909 322.896 
L 153.409091 322.896 
z
" clip-path="url(#pbb46cc9991)" style="fill: #000080; fill-opacity: 0.65; stroke: #000000; stroke-width: 1.5; stroke-linejoin: miter"/>
   </g>
   <g id="patch_52">
    <path d="M 166.090909 448.56 
L 178.772727 448.56 
L 178.772727 289.632 
L 166.090909 289.632 
z
" clip-path="url(#pbb46cc9991)" style="fill: #000080; fill-opacity: 0.65; stroke: #000000; stroke-width: 1.5; stroke-linejoin: miter"/>
   </g>
   <g id="patch_53">
    <path d="M 178.772727 448.56 
L 191.454545 448.56 
L 191.454545 297.024 
L 178.772727 297.024 
z
" clip-path="url(#pbb46cc9991)" style="fill: #000080; fill-opacity: 0.65; stroke: #000000; stroke-width: 1.5; stroke-linejoin: miter"/>
   </g>
   <g id="patch_54">
    <path d="M 191.454545 448.56 
L 204.136364 448.56 
L 204.136364 271.152 
L 191.454545 271.152 
z
" clip-path="url(#pbb46cc9991)" style="fill: #000080; fill-opacity: 0.65; stroke: #000000; stroke-width: 1.5; stroke-linejoin: miter"/>
   </g>
   <g id="patch_55">
    <path d="M 204.136364 448.56 
L 216.818182 448.56 
L 216.818182 278.544 
L 204.136364 278.544 
z
" clip-path="url(#pbb46cc9991)" style="fill: #000080; fill-opacity: 0.65; stroke: #000000; stroke-width: 1.5; stroke-linejoin: miter"/>
   </g>
   <g id="patch_56">
    <path d="M 216.818182 448.56 
L 229.5 448.56 
L 229.5 359.856 
L 216.818182 359.856 
z
" clip-path="url(#pbb46cc9991)" style="fill: #000080; fill-opacity: 0.65; stroke: #000000; stroke-width: 1.5; stroke-linejoin: miter"/>
   </g>
   <g id="patch_57">
    <path d="M 229.5 448.56 
L 242.181818 448.56 
L 242.181818 370.944 
L 229.5 370.944 
z
" clip-path="url(#pbb46cc9991)" style="fill: #000080; fill-opacity: 0.65; stroke: #000000; stroke-width: 1.5; stroke-linejoin: miter"/>
   </g>
   <g id="patch_58">
    <path d="M 242.181818 448.56 
L 254.863636 448.56 
L 254.863636 385.728 
L 242.181818 385.728 
z
" clip-path="url(#pbb46cc9991)" style="fill: #000080; fill-opacity: 0.65; stroke: #000000; stroke-width: 1.5; stroke-linejoin: miter"/>
   </g>
   <g id="patch_59">
    <path d="M 254.863636 448.56 
L 267.545455 448.56 
L 267.545455 382.032 
L 254.863636 382.032 
z
" clip-path="url(#pbb46cc9991)" style="fill: #000080; fill-opacity: 0.65; stroke: #000000; stroke-width: 1.5; stroke-linejoin: miter"/>
   </g>
   <g id="patch_60">
    <path d="M 267.545455 448.56 
L 280.227273 448.56 
L 280.227273 382.032 
L 267.545455 382.032 
z
" clip-path="url(#pbb46cc9991)" style="fill: #000080; fill-opacity: 0.65; stroke: #000000; stroke-width: 1.5; stroke-linejoin: miter"/>
   </g>
   <g id="patch_61">
    <path d="M 280.227273 448.56 
L 292.909091 448.56 
L 292.909091 400.512 
L 280.227273 400.512 
z
" clip-path="url(#pbb46cc9991)" style="fill: #000080; fill-opacity: 0.65; stroke: #000000; stroke-width: 1.5; stroke-linejoin: miter"/>
   </g>
   <g id="patch_62">
    <path d="M 292.909091 448.56 
L 305.590909 448.56 
L 305.590909 426.384 
L 292.909091 426.384 
z
" clip-path="url(#pbb46cc9991)" style="fill: #000080; fill-opacity: 0.65; stroke: #000000; stroke-width: 1.5; stroke-linejoin: miter"/>
   </g>
   <g id="patch_63">
    <path d="M 305.590909 448.56 
L 318.272727 448.56 
L 318.272727 433.776 
L 305.590909 433.776 
z
" clip-path="url(#pbb46cc9991)" style="fill: #000080; fill-opacity: 0.65; stroke: #000000; stroke-width: 1.5; stroke-linejoin: miter"/>
   </g>
   <g id="patch_64">
    <path d="M 318.272727 448.56 
L 330.954545 448.56 
L 330.954545 426.384 
L 318.272727 426.384 
z
" clip-path="url(#pbb46cc9991)" style="fill: #000080; fill-opacity: 0.65; stroke: #000000; stroke-width: 1.5; stroke-linejoin: miter"/>
   </g>
   <g id="patch_65">
    <path d="M 330.954545 448.56 
L 343.636364 448.56 
L 343.636364 430.08 
L 330.954545 430.08 
z
" clip-path="url(#pbb46cc9991)" style="fill: #000080; fill-opacity: 0.65; stroke: #000000; stroke-width: 1.5; stroke-linejoin: miter"/>
   </g>
   <g id="patch_66">
    <path d="M 343.636364 448.56 
L 356.318182 448.56 
L 356.318182 441.168 
L 343.636364 441.168 
z
" clip-path="url(#pbb46cc9991)" style="fill: #000080; fill-opacity: 0.65; stroke: #000000; stroke-width: 1.5; stroke-linejoin: miter"/>
   </g>
   <g id="patch_67">
    <path d="M 356.318182 448.56 
L 369 448.56 
L 369 430.08 
L 356.318182 430.08 
z
" clip-path="url(#pbb46cc9991)" style="fill: #000080; fill-opacity: 0.65; stroke: #000000; stroke-width: 1.5; stroke-linejoin: miter"/>
   </g>
   <g id="patch_68">
    <path d="M 369 448.56 
L 381.681818 448.56 
L 381.681818 433.776 
L 369 433.776 
z
" clip-path="url(#pbb46cc9991)" style="fill: #000080; fill-opacity: 0.65; stroke: #000000; stroke-width: 1.5; stroke-linejoin: miter"/>
   </g>
   <g id="patch_69">
    <path d="M 381.681818 448.56 
L 394.363636 448.56 
L 394.363636 437.472 
L 381.681818 437.472 
z
" clip-path="url(#pbb46cc9991)" style="fill: #000080; fill-opacity: 0.65; stroke: #000000; stroke-width: 1.5; stroke-linejoin: miter"/>
   </g>
   <g id="patch_70">
    <path d="M 394.363636 448.56 
L 407.045455 448.56 
L 407.045455 437.472 
L 394.363636 437.472 
z
" clip-path="url(#pbb46cc9991)" style="fill: #000080; fill-opacity: 0.65; stroke: #000000; stroke-width: 1.5; stroke-linejoin: miter"/>
   </g>
   <g id="patch_71">
    <path d="M 407.045455 448.56 
L 419.727273 448.56 
L 419.727273 448.56 
L 407.045455 448.56 
z
" clip-path="url(#pbb46cc9991)" style="fill: #000080; fill-opacity: 0.65; stroke: #000000; stroke-width: 1.5; stroke-linejoin: miter"/>
   </g>
   <g id="patch_72">
    <path d="M 419.727273 448.56 
L 432.409091 448.56 
L 432.409091 441.168 
L 419.727273 441.168 
z
" clip-path="url(#pbb46cc9991)" style="fill: #000080; fill-opacity: 0.65; stroke: #000000; stroke-width: 1.5; stroke-linejoin: miter"/>
   </g>
   <g id="patch_73">
    <path d="M 432.409091 448.56 
L 445.090909 448.56 
L 445.090909 444.864 
L 432.409091 444.864 
z
" clip-path="url(#pbb46cc9991)" style="fill: #000080; fill-opacity: 0.65; stroke: #000000; stroke-width: 1.5; stroke-linejoin: miter"/>
   </g>
   <g id="patch_74">
    <path d="M 445.090909 448.56 
L 457.772727 448.56 
L 457.772727 448.56 
L 445.090909 448.56 
z
" clip-path="url(#pbb46cc9991)" style="fill: #000080; fill-opacity: 0.65; stroke: #000000; stroke-width: 1.5; stroke-linejoin: miter"/>
   </g>
   <g id="patch_75">
    <path d="M 457.772727 448.56 
L 470.454545 448.56 
L 470.454545 448.56 
L 457.772727 448.56 
z
" clip-path="url(#pbb46cc9991)" style="fill: #000080; fill-opacity: 0.65; stroke: #000000; stroke-width: 1.5; stroke-linejoin: miter"/>
   </g>
   <g id="patch_76">
    <path d="M 470.454545 448.56 
L 483.136364 448.56 
L 483.136364 448.56 
L 470.454545 448.56 
z
" clip-path="url(#pbb46cc9991)" style="fill: #000080; fill-opacity: 0.65; stroke: #000000; stroke-width: 1.5; stroke-linejoin: miter"/>
   </g>
   <g id="patch_77">
    <path d="M 483.136364 448.56 
L 495.818182 448.56 
L 495.818182 444.864 
L 483.136364 444.864 
z
" clip-path="url(#pbb46cc9991)" style="fill: #000080; fill-opacity: 0.65; stroke: #000000; stroke-width: 1.5; stroke-linejoin: miter"/>
   </g>
   <g id="patch_78">
    <path d="M 495.818182 448.56 
L 508.5 448.56 
L 508.5 444.864 
L 495.818182 444.864 
z
" clip-path="url(#pbb46cc9991)" style="fill: #000080; fill-opacity: 0.65; stroke: #000000; stroke-width: 1.5; stroke-linejoin: miter"/>
   </g>
   <g id="patch_79">
    <path d="M 508.5 448.56 
L 521.181818 448.56 
L 521.181818 448.56 
L 508.5 448.56 
z
" clip-path="url(#pbb46cc9991)" style="fill: #000080; fill-opacity: 0.65; stroke: #000000; stroke-width: 1.5; stroke-linejoin: miter"/>
   </g>
   <g id="patch_80">
    <path d="M 521.181818 448.56 
L 533.863636 448.56 
L 533.863636 448.56 
L 521.181818 448.56 
z
" clip-path="url(#pbb46cc9991)" style="fill: #000080; fill-opacity: 0.65; stroke: #000000; stroke-width: 1.5; stroke-linejoin: miter"/>
   </g>
   <g id="patch_81">
    <path d="M 533.863636 448.56 
L 546.545455 448.56 
L 546.545455 448.56 
L 533.863636 448.56 
z
" clip-path="url(#pbb46cc9991)" style="fill: #000080; fill-opacity: 0.65; stroke: #000000; stroke-width: 1.5; stroke-linejoin: miter"/>
   </g>
   <g id="patch_82">
    <path d="M 546.545455 448.56 
L 559.227273 448.56 
L 559.227273 444.864 
L 546.545455 444.864 
z
" clip-path="url(#pbb46cc9991)" style="fill: #000080; fill-opacity: 0.65; stroke: #000000; stroke-width: 1.5; stroke-linejoin: miter"/>
   </g>
   <g id="patch_83">
    <path d="M 559.227273 448.56 
L 571.909091 448.56 
L 571.909091 448.56 
L 559.227273 448.56 
z
" clip-path="url(#pbb46cc9991)" style="fill: #000080; fill-opacity: 0.65; stroke: #000000; stroke-width: 1.5; stroke-linejoin: miter"/>
   </g>
   <g id="patch_84">
    <path d="M 571.909091 448.56 
L 584.590909 448.56 
L 584.590909 448.56 
L 571.909091 448.56 
z
" clip-path="url(#pbb46cc9991)" style="fill: #000080; fill-opacity: 0.65; stroke: #000000; stroke-width: 1.5; stroke-linejoin: miter"/>
   </g>
   <g id="patch_85">
    <path d="M 584.590909 448.56 
L 597.272727 448.56 
L 597.272727 448.56 
L 584.590909 448.56 
z
" clip-path="url(#pbb46cc9991)" style="fill: #000080; fill-opacity: 0.65; stroke: #000000; stroke-width: 1.5; stroke-linejoin: miter"/>
   </g>
   <g id="patch_86">
    <path d="M 597.272727 448.56 
L 609.954545 448.56 
L 609.954545 444.864 
L 597.272727 444.864 
z
" clip-path="url(#pbb46cc9991)" style="fill: #000080; fill-opacity: 0.65; stroke: #000000; stroke-width: 1.5; stroke-linejoin: miter"/>
   </g>
   <g id="patch_87">
    <path d="M 609.954545 448.56 
L 622.636364 448.56 
L 622.636364 444.864 
L 609.954545 444.864 
z
" clip-path="url(#pbb46cc9991)" style="fill: #000080; fill-opacity: 0.65; stroke: #000000; stroke-width: 1.5; stroke-linejoin: miter"/>
   </g>
   <g id="matplotlib.axis_3">
    <g id="xtick_10">
     <g id="line2d_15">
      <g>
       <use xlink:href="#mf5471ad9b1" x="115.363636" y="448.56" style="stroke: #000000; stroke-width: 0.8"/>
      </g>
     </g>
     <g id="text_6">
      <!-- 0 -->
      <g transform="translate(110.909886 466.197812) scale(0.14 -0.14)">
       <use xlink:href="#DejaVuSans-30"/>
      </g>
     </g>
    </g>
    <g id="xtick_11">
     <g id="line2d_16">
      <g>
       <use xlink:href="#mf5471ad9b1" x="178.772727" y="448.56" style="stroke: #000000; stroke-width: 0.8"/>
      </g>
     </g>
     <g id="text_7">
      <!-- 5:1 -->
      <g transform="translate(167.507102 466.197812) scale(0.14 -0.14)">
       <defs>
        <path id="DejaVuSans-35" d="M 691 4666 
L 3169 4666 
L 3169 4134 
L 1269 4134 
L 1269 2991 
Q 1406 3038 1543 3061 
Q 1681 3084 1819 3084 
Q 2600 3084 3056 2656 
Q 3513 2228 3513 1497 
Q 3513 744 3044 326 
Q 2575 -91 1722 -91 
Q 1428 -91 1123 -41 
Q 819 9 494 109 
L 494 744 
Q 775 591 1075 516 
Q 1375 441 1709 441 
Q 2250 441 2565 725 
Q 2881 1009 2881 1497 
Q 2881 1984 2565 2268 
Q 2250 2553 1709 2553 
Q 1456 2553 1204 2497 
Q 953 2441 691 2322 
L 691 4666 
z
" transform="scale(0.015625)"/>
        <path id="DejaVuSans-3a" d="M 750 794 
L 1409 794 
L 1409 0 
L 750 0 
L 750 794 
z
M 750 3309 
L 1409 3309 
L 1409 2516 
L 750 2516 
L 750 3309 
z
" transform="scale(0.015625)"/>
       </defs>
       <use xlink:href="#DejaVuSans-35"/>
       <use xlink:href="#DejaVuSans-3a" transform="translate(63.623047 0)"/>
       <use xlink:href="#DejaVuSans-31" transform="translate(97.314453 0)"/>
      </g>
     </g>
    </g>
    <g id="xtick_12">
     <g id="line2d_17">
      <g>
       <use xlink:href="#mf5471ad9b1" x="242.181818" y="448.56" style="stroke: #000000; stroke-width: 0.8"/>
      </g>
     </g>
     <g id="text_8">
      <!-- 10:1 -->
      <g transform="translate(226.462443 466.197812) scale(0.14 -0.14)">
       <use xlink:href="#DejaVuSans-31"/>
       <use xlink:href="#DejaVuSans-30" transform="translate(63.623047 0)"/>
       <use xlink:href="#DejaVuSans-3a" transform="translate(127.246094 0)"/>
       <use xlink:href="#DejaVuSans-31" transform="translate(160.9375 0)"/>
      </g>
     </g>
    </g>
    <g id="xtick_13">
     <g id="line2d_18">
      <g>
       <use xlink:href="#mf5471ad9b1" x="305.590909" y="448.56" style="stroke: #000000; stroke-width: 0.8"/>
      </g>
     </g>
     <g id="text_9">
      <!-- 15:1 -->
      <g transform="translate(289.871534 466.197812) scale(0.14 -0.14)">
       <use xlink:href="#DejaVuSans-31"/>
       <use xlink:href="#DejaVuSans-35" transform="translate(63.623047 0)"/>
       <use xlink:href="#DejaVuSans-3a" transform="translate(127.246094 0)"/>
       <use xlink:href="#DejaVuSans-31" transform="translate(160.9375 0)"/>
      </g>
     </g>
    </g>
    <g id="xtick_14">
     <g id="line2d_19">
      <g>
       <use xlink:href="#mf5471ad9b1" x="369" y="448.56" style="stroke: #000000; stroke-width: 0.8"/>
      </g>
     </g>
     <g id="text_10">
      <!-- 20:1 -->
      <g transform="translate(353.280625 466.197812) scale(0.14 -0.14)">
       <use xlink:href="#DejaVuSans-32"/>
       <use xlink:href="#DejaVuSans-30" transform="translate(63.623047 0)"/>
       <use xlink:href="#DejaVuSans-3a" transform="translate(127.246094 0)"/>
       <use xlink:href="#DejaVuSans-31" transform="translate(160.9375 0)"/>
      </g>
     </g>
    </g>
    <g id="xtick_15">
     <g id="line2d_20">
      <g>
       <use xlink:href="#mf5471ad9b1" x="432.409091" y="448.56" style="stroke: #000000; stroke-width: 0.8"/>
      </g>
     </g>
     <g id="text_11">
      <!-- 25:1 -->
      <g transform="translate(416.689716 466.197812) scale(0.14 -0.14)">
       <use xlink:href="#DejaVuSans-32"/>
       <use xlink:href="#DejaVuSans-35" transform="translate(63.623047 0)"/>
       <use xlink:href="#DejaVuSans-3a" transform="translate(127.246094 0)"/>
       <use xlink:href="#DejaVuSans-31" transform="translate(160.9375 0)"/>
      </g>
     </g>
    </g>
    <g id="xtick_16">
     <g id="line2d_21">
      <g>
       <use xlink:href="#mf5471ad9b1" x="495.818182" y="448.56" style="stroke: #000000; stroke-width: 0.8"/>
      </g>
     </g>
     <g id="text_12">
      <!-- 30:1 -->
      <g transform="translate(480.098807 466.197812) scale(0.14 -0.14)">
       <defs>
        <path id="DejaVuSans-33" d="M 2597 2516 
Q 3050 2419 3304 2112 
Q 3559 1806 3559 1356 
Q 3559 666 3084 287 
Q 2609 -91 1734 -91 
Q 1441 -91 1130 -33 
Q 819 25 488 141 
L 488 750 
Q 750 597 1062 519 
Q 1375 441 1716 441 
Q 2309 441 2620 675 
Q 2931 909 2931 1356 
Q 2931 1769 2642 2001 
Q 2353 2234 1838 2234 
L 1294 2234 
L 1294 2753 
L 1863 2753 
Q 2328 2753 2575 2939 
Q 2822 3125 2822 3475 
Q 2822 3834 2567 4026 
Q 2313 4219 1838 4219 
Q 1578 4219 1281 4162 
Q 984 4106 628 3988 
L 628 4550 
Q 988 4650 1302 4700 
Q 1616 4750 1894 4750 
Q 2613 4750 3031 4423 
Q 3450 4097 3450 3541 
Q 3450 3153 3228 2886 
Q 3006 2619 2597 2516 
z
" transform="scale(0.015625)"/>
       </defs>
       <use xlink:href="#DejaVuSans-33"/>
       <use xlink:href="#DejaVuSans-30" transform="translate(63.623047 0)"/>
       <use xlink:href="#DejaVuSans-3a" transform="translate(127.246094 0)"/>
       <use xlink:href="#DejaVuSans-31" transform="translate(160.9375 0)"/>
      </g>
     </g>
    </g>
    <g id="xtick_17">
     <g id="line2d_22">
      <g>
       <use xlink:href="#mf5471ad9b1" x="559.227273" y="448.56" style="stroke: #000000; stroke-width: 0.8"/>
      </g>
     </g>
     <g id="text_13">
      <!-- 35:1 -->
      <g transform="translate(543.507898 466.197812) scale(0.14 -0.14)">
       <use xlink:href="#DejaVuSans-33"/>
       <use xlink:href="#DejaVuSans-35" transform="translate(63.623047 0)"/>
       <use xlink:href="#DejaVuSans-3a" transform="translate(127.246094 0)"/>
       <use xlink:href="#DejaVuSans-31" transform="translate(160.9375 0)"/>
      </g>
     </g>
    </g>
    <g id="xtick_18">
     <g id="line2d_23">
      <g>
       <use xlink:href="#mf5471ad9b1" x="622.636364" y="448.56" style="stroke: #000000; stroke-width: 0.8"/>
      </g>
     </g>
     <g id="text_14">
      <!-- 40:1 -->
      <g transform="translate(606.916989 466.197812) scale(0.14 -0.14)">
       <defs>
        <path id="DejaVuSans-34" d="M 2419 4116 
L 825 1625 
L 2419 1625 
L 2419 4116 
z
M 2253 4666 
L 3047 4666 
L 3047 1625 
L 3713 1625 
L 3713 1100 
L 3047 1100 
L 3047 0 
L 2419 0 
L 2419 1100 
L 313 1100 
L 313 1709 
L 2253 4666 
z
" transform="scale(0.015625)"/>
       </defs>
       <use xlink:href="#DejaVuSans-34"/>
       <use xlink:href="#DejaVuSans-30" transform="translate(63.623047 0)"/>
       <use xlink:href="#DejaVuSans-3a" transform="translate(127.246094 0)"/>
       <use xlink:href="#DejaVuSans-31" transform="translate(160.9375 0)"/>
      </g>
     </g>
    </g>
    <g id="text_15">
     <!-- Ratio of Wastewater to Milk (L/L) -->
     <g transform="translate(238.85625 485.266875) scale(0.16 -0.16)">
      <defs>
       <path id="DejaVuSans-52" d="M 2841 2188 
Q 3044 2119 3236 1894 
Q 3428 1669 3622 1275 
L 4263 0 
L 3584 0 
L 2988 1197 
Q 2756 1666 2539 1819 
Q 2322 1972 1947 1972 
L 1259 1972 
L 1259 0 
L 628 0 
L 628 4666 
L 2053 4666 
Q 2853 4666 3247 4331 
Q 3641 3997 3641 3322 
Q 3641 2881 3436 2590 
Q 3231 2300 2841 2188 
z
M 1259 4147 
L 1259 2491 
L 2053 2491 
Q 2509 2491 2742 2702 
Q 2975 2913 2975 3322 
Q 2975 3731 2742 3939 
Q 2509 4147 2053 4147 
L 1259 4147 
z
" transform="scale(0.015625)"/>
       <path id="DejaVuSans-74" d="M 1172 4494 
L 1172 3500 
L 2356 3500 
L 2356 3053 
L 1172 3053 
L 1172 1153 
Q 1172 725 1289 603 
Q 1406 481 1766 481 
L 2356 481 
L 2356 0 
L 1766 0 
Q 1100 0 847 248 
Q 594 497 594 1153 
L 594 3053 
L 172 3053 
L 172 3500 
L 594 3500 
L 594 4494 
L 1172 4494 
z
" transform="scale(0.015625)"/>
       <path id="DejaVuSans-57" d="M 213 4666 
L 850 4666 
L 1831 722 
L 2809 4666 
L 3519 4666 
L 4500 722 
L 5478 4666 
L 6119 4666 
L 4947 0 
L 4153 0 
L 3169 4050 
L 2175 0 
L 1381 0 
L 213 4666 
z
" transform="scale(0.015625)"/>
       <path id="DejaVuSans-77" d="M 269 3500 
L 844 3500 
L 1563 769 
L 2278 3500 
L 2956 3500 
L 3675 769 
L 4391 3500 
L 4966 3500 
L 4050 0 
L 3372 0 
L 2619 2869 
L 1863 0 
L 1184 0 
L 269 3500 
z
" transform="scale(0.015625)"/>
       <path id="DejaVuSans-4d" d="M 628 4666 
L 1569 4666 
L 2759 1491 
L 3956 4666 
L 4897 4666 
L 4897 0 
L 4281 0 
L 4281 4097 
L 3078 897 
L 2444 897 
L 1241 4097 
L 1241 0 
L 628 0 
L 628 4666 
z
" transform="scale(0.015625)"/>
       <path id="DejaVuSans-6c" d="M 603 4863 
L 1178 4863 
L 1178 0 
L 603 0 
L 603 4863 
z
" transform="scale(0.015625)"/>
       <path id="DejaVuSans-6b" d="M 581 4863 
L 1159 4863 
L 1159 1991 
L 2875 3500 
L 3609 3500 
L 1753 1863 
L 3688 0 
L 2938 0 
L 1159 1709 
L 1159 0 
L 581 0 
L 581 4863 
z
" transform="scale(0.015625)"/>
       <path id="DejaVuSans-28" d="M 1984 4856 
Q 1566 4138 1362 3434 
Q 1159 2731 1159 2009 
Q 1159 1288 1364 580 
Q 1569 -128 1984 -844 
L 1484 -844 
Q 1016 -109 783 600 
Q 550 1309 550 2009 
Q 550 2706 781 3412 
Q 1013 4119 1484 4856 
L 1984 4856 
z
" transform="scale(0.015625)"/>
       <path id="DejaVuSans-4c" d="M 628 4666 
L 1259 4666 
L 1259 531 
L 3531 531 
L 3531 0 
L 628 0 
L 628 4666 
z
" transform="scale(0.015625)"/>
       <path id="DejaVuSans-2f" d="M 1625 4666 
L 2156 4666 
L 531 -594 
L 0 -594 
L 1625 4666 
z
" transform="scale(0.015625)"/>
       <path id="DejaVuSans-29" d="M 513 4856 
L 1013 4856 
Q 1481 4119 1714 3412 
Q 1947 2706 1947 2009 
Q 1947 1309 1714 600 
Q 1481 -109 1013 -844 
L 513 -844 
Q 928 -128 1133 580 
Q 1338 1288 1338 2009 
Q 1338 2731 1133 3434 
Q 928 4138 513 4856 
z
" transform="scale(0.015625)"/>
      </defs>
      <use xlink:href="#DejaVuSans-52"/>
      <use xlink:href="#DejaVuSans-61" transform="translate(67.232422 0)"/>
      <use xlink:href="#DejaVuSans-74" transform="translate(128.511719 0)"/>
      <use xlink:href="#DejaVuSans-69" transform="translate(167.720703 0)"/>
      <use xlink:href="#DejaVuSans-6f" transform="translate(195.503906 0)"/>
      <use xlink:href="#DejaVuSans-20" transform="translate(256.685547 0)"/>
      <use xlink:href="#DejaVuSans-6f" transform="translate(288.472656 0)"/>
      <use xlink:href="#DejaVuSans-66" transform="translate(349.654297 0)"/>
      <use xlink:href="#DejaVuSans-20" transform="translate(384.859375 0)"/>
      <use xlink:href="#DejaVuSans-57" transform="translate(416.646484 0)"/>
      <use xlink:href="#DejaVuSans-61" transform="translate(509.148438 0)"/>
      <use xlink:href="#DejaVuSans-73" transform="translate(570.427734 0)"/>
      <use xlink:href="#DejaVuSans-74" transform="translate(622.527344 0)"/>
      <use xlink:href="#DejaVuSans-65" transform="translate(661.736328 0)"/>
      <use xlink:href="#DejaVuSans-77" transform="translate(723.259766 0)"/>
      <use xlink:href="#DejaVuSans-61" transform="translate(805.046875 0)"/>
      <use xlink:href="#DejaVuSans-74" transform="translate(866.326172 0)"/>
      <use xlink:href="#DejaVuSans-65" transform="translate(905.535156 0)"/>
      <use xlink:href="#DejaVuSans-72" transform="translate(967.058594 0)"/>
      <use xlink:href="#DejaVuSans-20" transform="translate(1008.171875 0)"/>
      <use xlink:href="#DejaVuSans-74" transform="translate(1039.958984 0)"/>
      <use xlink:href="#DejaVuSans-6f" transform="translate(1079.167969 0)"/>
      <use xlink:href="#DejaVuSans-20" transform="translate(1140.349609 0)"/>
      <use xlink:href="#DejaVuSans-4d" transform="translate(1172.136719 0)"/>
      <use xlink:href="#DejaVuSans-69" transform="translate(1258.416016 0)"/>
      <use xlink:href="#DejaVuSans-6c" transform="translate(1286.199219 0)"/>
      <use xlink:href="#DejaVuSans-6b" transform="translate(1313.982422 0)"/>
      <use xlink:href="#DejaVuSans-20" transform="translate(1371.892578 0)"/>
      <use xlink:href="#DejaVuSans-28" transform="translate(1403.679688 0)"/>
      <use xlink:href="#DejaVuSans-4c" transform="translate(1442.693359 0)"/>
      <use xlink:href="#DejaVuSans-2f" transform="translate(1498.40625 0)"/>
      <use xlink:href="#DejaVuSans-4c" transform="translate(1532.097656 0)"/>
      <use xlink:href="#DejaVuSans-29" transform="translate(1587.810547 0)"/>
     </g>
    </g>
   </g>
   <g id="matplotlib.axis_4">
    <g id="ytick_4">
     <g id="line2d_24">
      <g>
       <use xlink:href="#m6b6e507b75" x="90" y="448.56" style="stroke: #000000; stroke-width: 0.8"/>
      </g>
     </g>
     <g id="text_16">
      <!-- 0 -->
      <g transform="translate(74.0925 453.878906) scale(0.14 -0.14)">
       <use xlink:href="#DejaVuSans-30"/>
      </g>
     </g>
    </g>
    <g id="ytick_5">
     <g id="line2d_25">
      <g>
       <use xlink:href="#m6b6e507b75" x="90" y="411.6" style="stroke: #000000; stroke-width: 0.8"/>
      </g>
     </g>
     <g id="text_17">
      <!-- 10 -->
      <g transform="translate(65.185 416.918906) scale(0.14 -0.14)">
       <use xlink:href="#DejaVuSans-31"/>
       <use xlink:href="#DejaVuSans-30" transform="translate(63.623047 0)"/>
      </g>
     </g>
    </g>
    <g id="ytick_6">
     <g id="line2d_26">
      <g>
       <use xlink:href="#m6b6e507b75" x="90" y="374.64" style="stroke: #000000; stroke-width: 0.8"/>
      </g>
     </g>
     <g id="text_18">
      <!-- 20 -->
      <g transform="translate(65.185 379.958906) scale(0.14 -0.14)">
       <use xlink:href="#DejaVuSans-32"/>
       <use xlink:href="#DejaVuSans-30" transform="translate(63.623047 0)"/>
      </g>
     </g>
    </g>
    <g id="ytick_7">
     <g id="line2d_27">
      <g>
       <use xlink:href="#m6b6e507b75" x="90" y="337.68" style="stroke: #000000; stroke-width: 0.8"/>
      </g>
     </g>
     <g id="text_19">
      <!-- 30 -->
      <g transform="translate(65.185 342.998906) scale(0.14 -0.14)">
       <use xlink:href="#DejaVuSans-33"/>
       <use xlink:href="#DejaVuSans-30" transform="translate(63.623047 0)"/>
      </g>
     </g>
    </g>
    <g id="ytick_8">
     <g id="line2d_28">
      <g>
       <use xlink:href="#m6b6e507b75" x="90" y="300.72" style="stroke: #000000; stroke-width: 0.8"/>
      </g>
     </g>
     <g id="text_20">
      <!-- 40 -->
      <g transform="translate(65.185 306.038906) scale(0.14 -0.14)">
       <use xlink:href="#DejaVuSans-34"/>
       <use xlink:href="#DejaVuSans-30" transform="translate(63.623047 0)"/>
      </g>
     </g>
    </g>
    <g id="ytick_9">
     <g id="line2d_29">
      <g>
       <use xlink:href="#m6b6e507b75" x="90" y="263.76" style="stroke: #000000; stroke-width: 0.8"/>
      </g>
     </g>
     <g id="text_21">
      <!-- 50 -->
      <g transform="translate(65.185 269.078906) scale(0.14 -0.14)">
       <use xlink:href="#DejaVuSans-35"/>
       <use xlink:href="#DejaVuSans-30" transform="translate(63.623047 0)"/>
      </g>
     </g>
    </g>
    <g id="text_22">
     <!-- Number of Dairies -->
     <g transform="translate(57.8575 428.98) rotate(-90) scale(0.16 -0.16)">
      <use xlink:href="#DejaVuSans-4e"/>
      <use xlink:href="#DejaVuSans-75" transform="translate(74.804688 0)"/>
      <use xlink:href="#DejaVuSans-6d" transform="translate(138.183594 0)"/>
      <use xlink:href="#DejaVuSans-62" transform="translate(235.595703 0)"/>
      <use xlink:href="#DejaVuSans-65" transform="translate(299.072266 0)"/>
      <use xlink:href="#DejaVuSans-72" transform="translate(360.595703 0)"/>
      <use xlink:href="#DejaVuSans-20" transform="translate(401.708984 0)"/>
      <use xlink:href="#DejaVuSans-6f" transform="translate(433.496094 0)"/>
      <use xlink:href="#DejaVuSans-66" transform="translate(494.677734 0)"/>
      <use xlink:href="#DejaVuSans-20" transform="translate(529.882812 0)"/>
      <use xlink:href="#DejaVuSans-44" transform="translate(561.669922 0)"/>
      <use xlink:href="#DejaVuSans-61" transform="translate(638.671875 0)"/>
      <use xlink:href="#DejaVuSans-69" transform="translate(699.951172 0)"/>
      <use xlink:href="#DejaVuSans-72" transform="translate(727.734375 0)"/>
      <use xlink:href="#DejaVuSans-69" transform="translate(768.847656 0)"/>
      <use xlink:href="#DejaVuSans-65" transform="translate(796.630859 0)"/>
      <use xlink:href="#DejaVuSans-73" transform="translate(858.154297 0)"/>
     </g>
    </g>
   </g>
   <g id="line2d_30">
    <path d="M 147.068182 448.56 
L 147.068182 263.76 
" clip-path="url(#pbb46cc9991)" style="fill: none; stroke-dasharray: 11.1,4.8; stroke-dashoffset: 0; stroke: #000000; stroke-width: 3"/>
   </g>
   <g id="line2d_31">
    <path d="M 242.181818 448.56 
L 242.181818 263.76 
" clip-path="url(#pbb46cc9991)" style="fill: none; stroke-dasharray: 11.1,4.8; stroke-dashoffset: 0; stroke: #000000; stroke-width: 3"/>
   </g>
   <g id="patch_88">
    <path d="M 90 448.56 
L 90 263.76 
" style="fill: none; stroke: #000000; stroke-width: 0.8; stroke-linejoin: miter; stroke-linecap: square"/>
   </g>
   <g id="patch_89">
    <path d="M 648 448.56 
L 648 263.76 
" style="fill: none; stroke: #000000; stroke-width: 0.8; stroke-linejoin: miter; stroke-linecap: square"/>
   </g>
   <g id="patch_90">
    <path d="M 90 448.56 
L 648 448.56 
" style="fill: none; stroke: #000000; stroke-width: 0.8; stroke-linejoin: miter; stroke-linecap: square"/>
   </g>
   <g id="patch_91">
    <path d="M 90 263.76 
L 648 263.76 
" style="fill: none; stroke: #000000; stroke-width: 0.8; stroke-linejoin: miter; stroke-linecap: square"/>
   </g>
   <g id="text_23">
    <!-- 2024 -->
    <g transform="translate(101.16 286.677188) scale(0.18 -0.18)">
     <defs>
      <path id="DejaVuSans-Bold-34" d="M 2356 3675 
L 1038 1722 
L 2356 1722 
L 2356 3675 
z
M 2156 4666 
L 3494 4666 
L 3494 1722 
L 4159 1722 
L 4159 850 
L 3494 850 
L 3494 0 
L 2356 0 
L 2356 850 
L 288 850 
L 288 1881 
L 2156 4666 
z
" transform="scale(0.015625)"/>
     </defs>
     <use xlink:href="#DejaVuSans-Bold-32"/>
     <use xlink:href="#DejaVuSans-Bold-30" transform="translate(69.580078 0)"/>
     <use xlink:href="#DejaVuSans-Bold-32" transform="translate(139.160156 0)"/>
     <use xlink:href="#DejaVuSans-Bold-34" transform="translate(208.740234 0)"/>
    </g>
   </g>
  </g>
 </g>
 <defs>
  <clipPath id="p877a1c9c78">
   <rect x="90" y="60.48" width="558" height="184.8"/>
  </clipPath>
  <clipPath id="pbb46cc9991">
   <rect x="90" y="263.76" width="558" height="184.8"/>
  </clipPath>
 </defs>
</svg>
