<?xml version="1.0" encoding="utf-8" standalone="no"?>
<!DOCTYPE svg PUBLIC "-//W3C//DTD SVG 1.1//EN"
  "http://www.w3.org/Graphics/SVG/1.1/DTD/svg11.dtd">
<svg xmlns:xlink="http://www.w3.org/1999/xlink" width="1152pt" height="504pt" viewBox="0 0 1152 504" xmlns="http://www.w3.org/2000/svg" version="1.1">
 <metadata>
  <rdf:RDF xmlns:dc="http://purl.org/dc/elements/1.1/" xmlns:cc="http://creativecommons.org/ns#" xmlns:rdf="http://www.w3.org/1999/02/22-rdf-syntax-ns#">
   <cc:Work>
    <dc:type rdf:resource="http://purl.org/dc/dcmitype/StillImage"/>
    <dc:date>2025-11-22T02:18:02.725828</dc:date>
    <dc:format>image/svg+xml</dc:format>
    <dc:creator>
     <cc:Agent>
      <dc:title>Matplotlib v3.10.5, https://matplotlib.org/</dc:title>
     </cc:Agent>
    </dc:creator>
   </cc:Work>
  </rdf:RDF>
 </metadata>
 <defs>
  <style type="text/css">*{stroke-linejoin: round; stroke-linecap: butt}</style>
 </defs>
 <g id="figure_1">
  <g id="patch_1">
   <path d="M 0 504 
L 1152 504 
L 1152 0 
L 0 0 
z
" style="fill: #ffffff"/>
  </g>
  <g id="axes_1">
   <g id="patch_2">
    <path d="M 225.163636 181.253315 
C 217.033743 181.253315 208.960254 182.606491 201.274653 185.257286 
C 193.589052 187.90808 186.397983 191.819709 179.9967 196.83157 
C 173.595417 201.84343 168.072742 207.885977 163.655427 214.711115 
C 159.238112 221.536252 155.987452 229.049275 154.036912 236.941712 
C 152.086372 244.83415 151.463017 252.996486 152.192443 261.093591 
C 152.921869 269.190697 154.993953 277.110215 158.323619 284.526986 
C 161.653285 291.943758 166.194332 298.754867 171.760311 304.680662 
C 177.32629 310.606457 183.839969 315.564712 191.033908 319.35185 
C 198.227847 323.138989 206.002223 325.70246 214.037835 326.937012 
C 222.073446 328.171565 230.258792 328.060069 238.257795 326.607101 
C 246.256799 325.154134 253.958467 322.379856 261.046583 318.398175 
C 268.1347 314.416494 274.51091 309.28266 279.913418 303.207458 
C 285.315926 297.132256 289.669767 290.199986 292.796181 282.695273 
C 295.922595 275.190561 297.778199 267.217541 298.286807 259.103572 
C 298.795414 250.989603 297.949966 242.847274 295.785176 235.010894 
C 293.620387 227.174513 290.166293 219.752819 285.564715 213.050532 
L 225.163636 254.52 
z
" style="fill: #b8860b"/>
   </g>
   <g id="patch_3">
    <path d="M 285.564723 213.050542 
C 278.83383 203.246863 269.816208 195.227739 259.293375 189.688155 
C 248.770542 184.148572 237.055536 181.253315 225.163647 181.253315 
L 225.163636 254.52 
z
" style="fill: #20b2aa"/>
   </g>
   <g id="matplotlib.axis_1"/>
   <g id="matplotlib.axis_2"/>
   <g id="text_1">
    <!-- Dry Manure -->
    <g transform="translate(105.891559 329.69816) scale(0.14 -0.14)">
     <defs>
      <path id="DejaVuSans-44" d="M 1259 4147 
L 1259 519 
L 2022 519 
Q 2988 519 3436 956 
Q 3884 1394 3884 2338 
Q 3884 3275 3436 3711 
Q 2988 4147 2022 4147 
L 1259 4147 
z
M 628 4666 
L 1925 4666 
Q 3281 4666 3915 4102 
Q 4550 3538 4550 2338 
Q 4550 1131 3912 565 
Q 3275 0 1925 0 
L 628 0 
L 628 4666 
z
" transform="scale(0.015625)"/>
      <path id="DejaVuSans-72" d="M 2631 2963 
Q 2534 3019 2420 3045 
Q 2306 3072 2169 3072 
Q 1681 3072 1420 2755 
Q 1159 2438 1159 1844 
L 1159 0 
L 581 0 
L 581 3500 
L 1159 3500 
L 1159 2956 
Q 1341 3275 1631 3429 
Q 1922 3584 2338 3584 
Q 2397 3584 2469 3576 
Q 2541 3569 2628 3553 
L 2631 2963 
z
" transform="scale(0.015625)"/>
      <path id="DejaVuSans-79" d="M 2059 -325 
Q 1816 -950 1584 -1140 
Q 1353 -1331 966 -1331 
L 506 -1331 
L 506 -850 
L 844 -850 
Q 1081 -850 1212 -737 
Q 1344 -625 1503 -206 
L 1606 56 
L 191 3500 
L 800 3500 
L 1894 763 
L 2988 3500 
L 3597 3500 
L 2059 -325 
z
" transform="scale(0.015625)"/>
      <path id="DejaVuSans-20" transform="scale(0.015625)"/>
      <path id="DejaVuSans-4d" d="M 628 4666 
L 1569 4666 
L 2759 1491 
L 3956 4666 
L 4897 4666 
L 4897 0 
L 4281 0 
L 4281 4097 
L 3078 897 
L 2444 897 
L 1241 4097 
L 1241 0 
L 628 0 
L 628 4666 
z
" transform="scale(0.015625)"/>
      <path id="DejaVuSans-61" d="M 2194 1759 
Q 1497 1759 1228 1600 
Q 959 1441 959 1056 
Q 959 750 1161 570 
Q 1363 391 1709 391 
Q 2188 391 2477 730 
Q 2766 1069 2766 1631 
L 2766 1759 
L 2194 1759 
z
M 3341 1997 
L 3341 0 
L 2766 0 
L 2766 531 
Q 2569 213 2275 61 
Q 1981 -91 1556 -91 
Q 1019 -91 701 211 
Q 384 513 384 1019 
Q 384 1609 779 1909 
Q 1175 2209 1959 2209 
L 2766 2209 
L 2766 2266 
Q 2766 2663 2505 2880 
Q 2244 3097 1772 3097 
Q 1472 3097 1187 3025 
Q 903 2953 641 2809 
L 641 3341 
Q 956 3463 1253 3523 
Q 1550 3584 1831 3584 
Q 2591 3584 2966 3190 
Q 3341 2797 3341 1997 
z
" transform="scale(0.015625)"/>
      <path id="DejaVuSans-6e" d="M 3513 2113 
L 3513 0 
L 2938 0 
L 2938 2094 
Q 2938 2591 2744 2837 
Q 2550 3084 2163 3084 
Q 1697 3084 1428 2787 
Q 1159 2491 1159 1978 
L 1159 0 
L 581 0 
L 581 3500 
L 1159 3500 
L 1159 2956 
Q 1366 3272 1645 3428 
Q 1925 3584 2291 3584 
Q 2894 3584 3203 3211 
Q 3513 2838 3513 2113 
z
" transform="scale(0.015625)"/>
      <path id="DejaVuSans-75" d="M 544 1381 
L 544 3500 
L 1119 3500 
L 1119 1403 
Q 1119 906 1312 657 
Q 1506 409 1894 409 
Q 2359 409 2629 706 
Q 2900 1003 2900 1516 
L 2900 3500 
L 3475 3500 
L 3475 0 
L 2900 0 
L 2900 538 
Q 2691 219 2414 64 
Q 2138 -91 1772 -91 
Q 1169 -91 856 284 
Q 544 659 544 1381 
z
M 1991 3584 
L 1991 3584 
z
" transform="scale(0.015625)"/>
      <path id="DejaVuSans-65" d="M 3597 1894 
L 3597 1613 
L 953 1613 
Q 991 1019 1311 708 
Q 1631 397 2203 397 
Q 2534 397 2845 478 
Q 3156 559 3463 722 
L 3463 178 
Q 3153 47 2828 -22 
Q 2503 -91 2169 -91 
Q 1331 -91 842 396 
Q 353 884 353 1716 
Q 353 2575 817 3079 
Q 1281 3584 2069 3584 
Q 2775 3584 3186 3129 
Q 3597 2675 3597 1894 
z
M 3022 2063 
Q 3016 2534 2758 2815 
Q 2500 3097 2075 3097 
Q 1594 3097 1305 2825 
Q 1016 2553 972 2059 
L 3022 2063 
z
" transform="scale(0.015625)"/>
     </defs>
     <use xlink:href="#DejaVuSans-44"/>
     <use xlink:href="#DejaVuSans-72" transform="translate(77.001953 0)"/>
     <use xlink:href="#DejaVuSans-79" transform="translate(118.115234 0)"/>
     <use xlink:href="#DejaVuSans-20" transform="translate(177.294922 0)"/>
     <use xlink:href="#DejaVuSans-4d" transform="translate(209.082031 0)"/>
     <use xlink:href="#DejaVuSans-61" transform="translate(295.361328 0)"/>
     <use xlink:href="#DejaVuSans-6e" transform="translate(356.640625 0)"/>
     <use xlink:href="#DejaVuSans-75" transform="translate(420.019531 0)"/>
     <use xlink:href="#DejaVuSans-72" transform="translate(483.398438 0)"/>
     <use xlink:href="#DejaVuSans-65" transform="translate(522.261719 0)"/>
    </g>
   </g>
   <g id="text_2">
    <!-- 21,948 -->
    <g transform="translate(172.555089 307.007012) scale(0.14 -0.14)">
     <defs>
      <path id="DejaVuSans-Bold-32" d="M 1844 884 
L 3897 884 
L 3897 0 
L 506 0 
L 506 884 
L 2209 2388 
Q 2438 2594 2547 2791 
Q 2656 2988 2656 3200 
Q 2656 3528 2436 3728 
Q 2216 3928 1850 3928 
Q 1569 3928 1234 3808 
Q 900 3688 519 3450 
L 519 4475 
Q 925 4609 1322 4679 
Q 1719 4750 2100 4750 
Q 2938 4750 3402 4381 
Q 3866 4013 3866 3353 
Q 3866 2972 3669 2642 
Q 3472 2313 2841 1759 
L 1844 884 
z
" transform="scale(0.015625)"/>
      <path id="DejaVuSans-Bold-31" d="M 750 831 
L 1813 831 
L 1813 3847 
L 722 3622 
L 722 4441 
L 1806 4666 
L 2950 4666 
L 2950 831 
L 4013 831 
L 4013 0 
L 750 0 
L 750 831 
z
" transform="scale(0.015625)"/>
      <path id="DejaVuSans-Bold-2c" d="M 653 1209 
L 1778 1209 
L 1778 256 
L 1006 -909 
L 341 -909 
L 653 256 
L 653 1209 
z
" transform="scale(0.015625)"/>
      <path id="DejaVuSans-Bold-39" d="M 641 103 
L 641 966 
Q 928 831 1190 764 
Q 1453 697 1709 697 
Q 2247 697 2547 995 
Q 2847 1294 2900 1881 
Q 2688 1725 2447 1647 
Q 2206 1569 1925 1569 
Q 1209 1569 770 1986 
Q 331 2403 331 3084 
Q 331 3838 820 4291 
Q 1309 4744 2131 4744 
Q 3044 4744 3544 4128 
Q 4044 3513 4044 2388 
Q 4044 1231 3459 570 
Q 2875 -91 1856 -91 
Q 1528 -91 1228 -42 
Q 928 6 641 103 
z
M 2125 2350 
Q 2441 2350 2600 2554 
Q 2759 2759 2759 3169 
Q 2759 3575 2600 3781 
Q 2441 3988 2125 3988 
Q 1809 3988 1650 3781 
Q 1491 3575 1491 3169 
Q 1491 2759 1650 2554 
Q 1809 2350 2125 2350 
z
" transform="scale(0.015625)"/>
      <path id="DejaVuSans-Bold-34" d="M 2356 3675 
L 1038 1722 
L 2356 1722 
L 2356 3675 
z
M 2156 4666 
L 3494 4666 
L 3494 1722 
L 4159 1722 
L 4159 850 
L 3494 850 
L 3494 0 
L 2356 0 
L 2356 850 
L 288 850 
L 288 1881 
L 2156 4666 
z
" transform="scale(0.015625)"/>
      <path id="DejaVuSans-Bold-38" d="M 2228 2088 
Q 1891 2088 1709 1903 
Q 1528 1719 1528 1375 
Q 1528 1031 1709 848 
Q 1891 666 2228 666 
Q 2563 666 2741 848 
Q 2919 1031 2919 1375 
Q 2919 1722 2741 1905 
Q 2563 2088 2228 2088 
z
M 1350 2484 
Q 925 2613 709 2878 
Q 494 3144 494 3541 
Q 494 4131 934 4440 
Q 1375 4750 2228 4750 
Q 3075 4750 3515 4442 
Q 3956 4134 3956 3541 
Q 3956 3144 3739 2878 
Q 3522 2613 3097 2484 
Q 3572 2353 3814 2058 
Q 4056 1763 4056 1313 
Q 4056 619 3595 264 
Q 3134 -91 2228 -91 
Q 1319 -91 855 264 
Q 391 619 391 1313 
Q 391 1763 633 2058 
Q 875 2353 1350 2484 
z
M 1631 3419 
Q 1631 3141 1786 2991 
Q 1941 2841 2228 2841 
Q 2509 2841 2662 2991 
Q 2816 3141 2816 3419 
Q 2816 3697 2662 3845 
Q 2509 3994 2228 3994 
Q 1941 3994 1786 3844 
Q 1631 3694 1631 3419 
z
" transform="scale(0.015625)"/>
     </defs>
     <use xlink:href="#DejaVuSans-Bold-32"/>
     <use xlink:href="#DejaVuSans-Bold-31" transform="translate(69.580078 0)"/>
     <use xlink:href="#DejaVuSans-Bold-2c" transform="translate(139.160156 0)"/>
     <use xlink:href="#DejaVuSans-Bold-39" transform="translate(177.148438 0)"/>
     <use xlink:href="#DejaVuSans-Bold-34" transform="translate(246.728516 0)"/>
     <use xlink:href="#DejaVuSans-Bold-38" transform="translate(316.308594 0)"/>
    </g>
   </g>
   <g id="text_3">
    <!-- Wastewater -->
    <g transform="translate(262.706315 187.068078) scale(0.14 -0.14)">
     <defs>
      <path id="DejaVuSans-57" d="M 213 4666 
L 850 4666 
L 1831 722 
L 2809 4666 
L 3519 4666 
L 4500 722 
L 5478 4666 
L 6119 4666 
L 4947 0 
L 4153 0 
L 3169 4050 
L 2175 0 
L 1381 0 
L 213 4666 
z
" transform="scale(0.015625)"/>
      <path id="DejaVuSans-73" d="M 2834 3397 
L 2834 2853 
Q 2591 2978 2328 3040 
Q 2066 3103 1784 3103 
Q 1356 3103 1142 2972 
Q 928 2841 928 2578 
Q 928 2378 1081 2264 
Q 1234 2150 1697 2047 
L 1894 2003 
Q 2506 1872 2764 1633 
Q 3022 1394 3022 966 
Q 3022 478 2636 193 
Q 2250 -91 1575 -91 
Q 1294 -91 989 -36 
Q 684 19 347 128 
L 347 722 
Q 666 556 975 473 
Q 1284 391 1588 391 
Q 1994 391 2212 530 
Q 2431 669 2431 922 
Q 2431 1156 2273 1281 
Q 2116 1406 1581 1522 
L 1381 1569 
Q 847 1681 609 1914 
Q 372 2147 372 2553 
Q 372 3047 722 3315 
Q 1072 3584 1716 3584 
Q 2034 3584 2315 3537 
Q 2597 3491 2834 3397 
z
" transform="scale(0.015625)"/>
      <path id="DejaVuSans-74" d="M 1172 4494 
L 1172 3500 
L 2356 3500 
L 2356 3053 
L 1172 3053 
L 1172 1153 
Q 1172 725 1289 603 
Q 1406 481 1766 481 
L 2356 481 
L 2356 0 
L 1766 0 
Q 1100 0 847 248 
Q 594 497 594 1153 
L 594 3053 
L 172 3053 
L 172 3500 
L 594 3500 
L 594 4494 
L 1172 4494 
z
" transform="scale(0.015625)"/>
      <path id="DejaVuSans-77" d="M 269 3500 
L 844 3500 
L 1563 769 
L 2278 3500 
L 2956 3500 
L 3675 769 
L 4391 3500 
L 4966 3500 
L 4050 0 
L 3372 0 
L 2619 2869 
L 1863 0 
L 1184 0 
L 269 3500 
z
" transform="scale(0.015625)"/>
     </defs>
     <use xlink:href="#DejaVuSans-57"/>
     <use xlink:href="#DejaVuSans-61" transform="translate(92.501953 0)"/>
     <use xlink:href="#DejaVuSans-73" transform="translate(153.78125 0)"/>
     <use xlink:href="#DejaVuSans-74" transform="translate(205.880859 0)"/>
     <use xlink:href="#DejaVuSans-65" transform="translate(245.089844 0)"/>
     <use xlink:href="#DejaVuSans-77" transform="translate(306.613281 0)"/>
     <use xlink:href="#DejaVuSans-61" transform="translate(388.400391 0)"/>
     <use xlink:href="#DejaVuSans-74" transform="translate(449.679688 0)"/>
     <use xlink:href="#DejaVuSans-65" transform="translate(488.888672 0)"/>
     <use xlink:href="#DejaVuSans-72" transform="translate(550.412109 0)"/>
    </g>
   </g>
   <g id="text_4">
    <!-- 4,003 -->
    <g transform="translate(228.620136 209.759229) scale(0.14 -0.14)">
     <defs>
      <path id="DejaVuSans-Bold-30" d="M 2944 2338 
Q 2944 3213 2780 3570 
Q 2616 3928 2228 3928 
Q 1841 3928 1675 3570 
Q 1509 3213 1509 2338 
Q 1509 1453 1675 1090 
Q 1841 728 2228 728 
Q 2613 728 2778 1090 
Q 2944 1453 2944 2338 
z
M 4147 2328 
Q 4147 1169 3647 539 
Q 3147 -91 2228 -91 
Q 1306 -91 806 539 
Q 306 1169 306 2328 
Q 306 3491 806 4120 
Q 1306 4750 2228 4750 
Q 3147 4750 3647 4120 
Q 4147 3491 4147 2328 
z
" transform="scale(0.015625)"/>
      <path id="DejaVuSans-Bold-33" d="M 2981 2516 
Q 3453 2394 3698 2092 
Q 3944 1791 3944 1325 
Q 3944 631 3412 270 
Q 2881 -91 1863 -91 
Q 1503 -91 1142 -33 
Q 781 25 428 141 
L 428 1069 
Q 766 900 1098 814 
Q 1431 728 1753 728 
Q 2231 728 2486 893 
Q 2741 1059 2741 1369 
Q 2741 1688 2480 1852 
Q 2219 2016 1709 2016 
L 1228 2016 
L 1228 2791 
L 1734 2791 
Q 2188 2791 2409 2933 
Q 2631 3075 2631 3366 
Q 2631 3634 2415 3781 
Q 2200 3928 1806 3928 
Q 1516 3928 1219 3862 
Q 922 3797 628 3669 
L 628 4550 
Q 984 4650 1334 4700 
Q 1684 4750 2022 4750 
Q 2931 4750 3382 4451 
Q 3834 4153 3834 3553 
Q 3834 3144 3618 2883 
Q 3403 2622 2981 2516 
z
" transform="scale(0.015625)"/>
     </defs>
     <use xlink:href="#DejaVuSans-Bold-34"/>
     <use xlink:href="#DejaVuSans-Bold-2c" transform="translate(69.580078 0)"/>
     <use xlink:href="#DejaVuSans-Bold-30" transform="translate(107.568359 0)"/>
     <use xlink:href="#DejaVuSans-Bold-30" transform="translate(177.148438 0)"/>
     <use xlink:href="#DejaVuSans-Bold-33" transform="translate(246.728516 0)"/>
    </g>
   </g>
   <g id="text_5">
    <!-- Phosphorous -->
    <g transform="translate(167.51723 147.200301) scale(0.18 -0.18)">
     <defs>
      <path id="DejaVuSans-50" d="M 1259 4147 
L 1259 2394 
L 2053 2394 
Q 2494 2394 2734 2622 
Q 2975 2850 2975 3272 
Q 2975 3691 2734 3919 
Q 2494 4147 2053 4147 
L 1259 4147 
z
M 628 4666 
L 2053 4666 
Q 2838 4666 3239 4311 
Q 3641 3956 3641 3272 
Q 3641 2581 3239 2228 
Q 2838 1875 2053 1875 
L 1259 1875 
L 1259 0 
L 628 0 
L 628 4666 
z
" transform="scale(0.015625)"/>
      <path id="DejaVuSans-68" d="M 3513 2113 
L 3513 0 
L 2938 0 
L 2938 2094 
Q 2938 2591 2744 2837 
Q 2550 3084 2163 3084 
Q 1697 3084 1428 2787 
Q 1159 2491 1159 1978 
L 1159 0 
L 581 0 
L 581 4863 
L 1159 4863 
L 1159 2956 
Q 1366 3272 1645 3428 
Q 1925 3584 2291 3584 
Q 2894 3584 3203 3211 
Q 3513 2838 3513 2113 
z
" transform="scale(0.015625)"/>
      <path id="DejaVuSans-6f" d="M 1959 3097 
Q 1497 3097 1228 2736 
Q 959 2375 959 1747 
Q 959 1119 1226 758 
Q 1494 397 1959 397 
Q 2419 397 2687 759 
Q 2956 1122 2956 1747 
Q 2956 2369 2687 2733 
Q 2419 3097 1959 3097 
z
M 1959 3584 
Q 2709 3584 3137 3096 
Q 3566 2609 3566 1747 
Q 3566 888 3137 398 
Q 2709 -91 1959 -91 
Q 1206 -91 779 398 
Q 353 888 353 1747 
Q 353 2609 779 3096 
Q 1206 3584 1959 3584 
z
" transform="scale(0.015625)"/>
      <path id="DejaVuSans-70" d="M 1159 525 
L 1159 -1331 
L 581 -1331 
L 581 3500 
L 1159 3500 
L 1159 2969 
Q 1341 3281 1617 3432 
Q 1894 3584 2278 3584 
Q 2916 3584 3314 3078 
Q 3713 2572 3713 1747 
Q 3713 922 3314 415 
Q 2916 -91 2278 -91 
Q 1894 -91 1617 61 
Q 1341 213 1159 525 
z
M 3116 1747 
Q 3116 2381 2855 2742 
Q 2594 3103 2138 3103 
Q 1681 3103 1420 2742 
Q 1159 2381 1159 1747 
Q 1159 1113 1420 752 
Q 1681 391 2138 391 
Q 2594 391 2855 752 
Q 3116 1113 3116 1747 
z
" transform="scale(0.015625)"/>
     </defs>
     <use xlink:href="#DejaVuSans-50"/>
     <use xlink:href="#DejaVuSans-68" transform="translate(60.302734 0)"/>
     <use xlink:href="#DejaVuSans-6f" transform="translate(123.681641 0)"/>
     <use xlink:href="#DejaVuSans-73" transform="translate(184.863281 0)"/>
     <use xlink:href="#DejaVuSans-70" transform="translate(236.962891 0)"/>
     <use xlink:href="#DejaVuSans-68" transform="translate(300.439453 0)"/>
     <use xlink:href="#DejaVuSans-6f" transform="translate(363.818359 0)"/>
     <use xlink:href="#DejaVuSans-72" transform="translate(425 0)"/>
     <use xlink:href="#DejaVuSans-6f" transform="translate(463.863281 0)"/>
     <use xlink:href="#DejaVuSans-75" transform="translate(525.044922 0)"/>
     <use xlink:href="#DejaVuSans-73" transform="translate(588.423828 0)"/>
    </g>
    <!-- Generated (tons) -->
    <g transform="translate(148.105355 167.356364) scale(0.18 -0.18)">
     <defs>
      <path id="DejaVuSans-47" d="M 3809 666 
L 3809 1919 
L 2778 1919 
L 2778 2438 
L 4434 2438 
L 4434 434 
Q 4069 175 3628 42 
Q 3188 -91 2688 -91 
Q 1594 -91 976 548 
Q 359 1188 359 2328 
Q 359 3472 976 4111 
Q 1594 4750 2688 4750 
Q 3144 4750 3555 4637 
Q 3966 4525 4313 4306 
L 4313 3634 
Q 3963 3931 3569 4081 
Q 3175 4231 2741 4231 
Q 1884 4231 1454 3753 
Q 1025 3275 1025 2328 
Q 1025 1384 1454 906 
Q 1884 428 2741 428 
Q 3075 428 3337 486 
Q 3600 544 3809 666 
z
" transform="scale(0.015625)"/>
      <path id="DejaVuSans-64" d="M 2906 2969 
L 2906 4863 
L 3481 4863 
L 3481 0 
L 2906 0 
L 2906 525 
Q 2725 213 2448 61 
Q 2172 -91 1784 -91 
Q 1150 -91 751 415 
Q 353 922 353 1747 
Q 353 2572 751 3078 
Q 1150 3584 1784 3584 
Q 2172 3584 2448 3432 
Q 2725 3281 2906 2969 
z
M 947 1747 
Q 947 1113 1208 752 
Q 1469 391 1925 391 
Q 2381 391 2643 752 
Q 2906 1113 2906 1747 
Q 2906 2381 2643 2742 
Q 2381 3103 1925 3103 
Q 1469 3103 1208 2742 
Q 947 2381 947 1747 
z
" transform="scale(0.015625)"/>
      <path id="DejaVuSans-28" d="M 1984 4856 
Q 1566 4138 1362 3434 
Q 1159 2731 1159 2009 
Q 1159 1288 1364 580 
Q 1569 -128 1984 -844 
L 1484 -844 
Q 1016 -109 783 600 
Q 550 1309 550 2009 
Q 550 2706 781 3412 
Q 1013 4119 1484 4856 
L 1984 4856 
z
" transform="scale(0.015625)"/>
      <path id="DejaVuSans-29" d="M 513 4856 
L 1013 4856 
Q 1481 4119 1714 3412 
Q 1947 2706 1947 2009 
Q 1947 1309 1714 600 
Q 1481 -109 1013 -844 
L 513 -844 
Q 928 -128 1133 580 
Q 1338 1288 1338 2009 
Q 1338 2731 1133 3434 
Q 928 4138 513 4856 
z
" transform="scale(0.015625)"/>
     </defs>
     <use xlink:href="#DejaVuSans-47"/>
     <use xlink:href="#DejaVuSans-65" transform="translate(77.490234 0)"/>
     <use xlink:href="#DejaVuSans-6e" transform="translate(139.013672 0)"/>
     <use xlink:href="#DejaVuSans-65" transform="translate(202.392578 0)"/>
     <use xlink:href="#DejaVuSans-72" transform="translate(263.916016 0)"/>
     <use xlink:href="#DejaVuSans-61" transform="translate(305.029297 0)"/>
     <use xlink:href="#DejaVuSans-74" transform="translate(366.308594 0)"/>
     <use xlink:href="#DejaVuSans-65" transform="translate(405.517578 0)"/>
     <use xlink:href="#DejaVuSans-64" transform="translate(467.041016 0)"/>
     <use xlink:href="#DejaVuSans-20" transform="translate(530.517578 0)"/>
     <use xlink:href="#DejaVuSans-28" transform="translate(562.304688 0)"/>
     <use xlink:href="#DejaVuSans-74" transform="translate(601.318359 0)"/>
     <use xlink:href="#DejaVuSans-6f" transform="translate(640.527344 0)"/>
     <use xlink:href="#DejaVuSans-6e" transform="translate(701.708984 0)"/>
     <use xlink:href="#DejaVuSans-73" transform="translate(765.087891 0)"/>
     <use xlink:href="#DejaVuSans-29" transform="translate(817.1875 0)"/>
    </g>
   </g>
  </g>
  <g id="axes_2">
   <g id="patch_4">
    <path d="M 468.654545 200.989419 
C 458.449003 200.989419 448.453193 203.90793 439.850984 209.399295 
C 431.248775 214.89066 424.393731 222.729175 420.097741 231.986472 
C 415.801751 241.243769 414.241385 251.53936 415.601449 261.65387 
C 416.961513 271.76838 421.186106 281.286088 427.774881 289.079747 
L 468.654545 254.52 
z
" style="fill: #b8860b"/>
   </g>
   <g id="patch_5">
    <path d="M 427.77488 289.079746 
C 432.620323 294.811274 438.617426 299.460222 445.375861 302.724005 
C 452.134294 305.987787 459.504184 307.794035 467.005868 308.025187 
C 474.507552 308.256341 481.974667 306.907275 488.921225 304.065787 
C 495.867784 301.2243 502.139728 296.953411 507.32886 291.531085 
L 468.654545 254.52 
z
" style="fill: #20b2aa"/>
   </g>
   <g id="patch_6">
    <path d="M 507.32886 291.531085 
C 514.578879 283.95526 519.445537 274.413571 521.321508 264.096758 
C 523.197476 253.779945 522.001325 243.135794 517.882328 233.492674 
C 513.763331 223.849554 506.900261 215.625985 498.149615 209.848263 
C 489.398969 204.070541 479.140564 200.989425 468.654578 200.989419 
L 468.654545 254.52 
z
" style="fill: #808080"/>
   </g>
   <g id="matplotlib.axis_3"/>
   <g id="matplotlib.axis_4"/>
   <g id="text_6">
    <!-- Applied -->
    <g transform="translate(352.897257 221.251082) scale(0.14 -0.14)">
     <defs>
      <path id="DejaVuSans-41" d="M 2188 4044 
L 1331 1722 
L 3047 1722 
L 2188 4044 
z
M 1831 4666 
L 2547 4666 
L 4325 0 
L 3669 0 
L 3244 1197 
L 1141 1197 
L 716 0 
L 50 0 
L 1831 4666 
z
" transform="scale(0.015625)"/>
      <path id="DejaVuSans-6c" d="M 603 4863 
L 1178 4863 
L 1178 0 
L 603 0 
L 603 4863 
z
" transform="scale(0.015625)"/>
      <path id="DejaVuSans-69" d="M 603 3500 
L 1178 3500 
L 1178 0 
L 603 0 
L 603 3500 
z
M 603 4863 
L 1178 4863 
L 1178 4134 
L 603 4134 
L 603 4863 
z
" transform="scale(0.015625)"/>
     </defs>
     <use xlink:href="#DejaVuSans-41"/>
     <use xlink:href="#DejaVuSans-70" transform="translate(68.408203 0)"/>
     <use xlink:href="#DejaVuSans-70" transform="translate(131.884766 0)"/>
     <use xlink:href="#DejaVuSans-6c" transform="translate(195.361328 0)"/>
     <use xlink:href="#DejaVuSans-69" transform="translate(223.144531 0)"/>
     <use xlink:href="#DejaVuSans-65" transform="translate(250.927734 0)"/>
     <use xlink:href="#DejaVuSans-64" transform="translate(312.451172 0)"/>
    </g>
    <!-- Dry Manure -->
    <g transform="translate(323.801319 236.928019) scale(0.14 -0.14)">
     <use xlink:href="#DejaVuSans-44"/>
     <use xlink:href="#DejaVuSans-72" transform="translate(77.001953 0)"/>
     <use xlink:href="#DejaVuSans-79" transform="translate(118.115234 0)"/>
     <use xlink:href="#DejaVuSans-20" transform="translate(177.294922 0)"/>
     <use xlink:href="#DejaVuSans-4d" transform="translate(209.082031 0)"/>
     <use xlink:href="#DejaVuSans-61" transform="translate(295.361328 0)"/>
     <use xlink:href="#DejaVuSans-6e" transform="translate(356.640625 0)"/>
     <use xlink:href="#DejaVuSans-75" transform="translate(420.019531 0)"/>
     <use xlink:href="#DejaVuSans-72" transform="translate(483.398438 0)"/>
     <use xlink:href="#DejaVuSans-65" transform="translate(522.261719 0)"/>
    </g>
   </g>
   <g id="text_7">
    <!-- 5,011 -->
    <g transform="translate(410.096158 241.482986) scale(0.14 -0.14)">
     <defs>
      <path id="DejaVuSans-Bold-35" d="M 678 4666 
L 3669 4666 
L 3669 3781 
L 1638 3781 
L 1638 3059 
Q 1775 3097 1914 3117 
Q 2053 3138 2203 3138 
Q 3056 3138 3531 2711 
Q 4006 2284 4006 1522 
Q 4006 766 3489 337 
Q 2972 -91 2053 -91 
Q 1656 -91 1267 -14 
Q 878 63 494 219 
L 494 1166 
Q 875 947 1217 837 
Q 1559 728 1863 728 
Q 2300 728 2551 942 
Q 2803 1156 2803 1522 
Q 2803 1891 2551 2103 
Q 2300 2316 1863 2316 
Q 1603 2316 1309 2248 
Q 1016 2181 678 2041 
L 678 4666 
z
" transform="scale(0.015625)"/>
     </defs>
     <use xlink:href="#DejaVuSans-Bold-35"/>
     <use xlink:href="#DejaVuSans-Bold-2c" transform="translate(69.580078 0)"/>
     <use xlink:href="#DejaVuSans-Bold-30" transform="translate(107.568359 0)"/>
     <use xlink:href="#DejaVuSans-Bold-31" transform="translate(177.148438 0)"/>
     <use xlink:href="#DejaVuSans-Bold-31" transform="translate(246.728516 0)"/>
    </g>
   </g>
   <g id="text_8">
    <!-- Applied -->
    <g transform="translate(413.877827 320.101399) scale(0.14 -0.14)">
     <use xlink:href="#DejaVuSans-41"/>
     <use xlink:href="#DejaVuSans-70" transform="translate(68.408203 0)"/>
     <use xlink:href="#DejaVuSans-70" transform="translate(131.884766 0)"/>
     <use xlink:href="#DejaVuSans-6c" transform="translate(195.361328 0)"/>
     <use xlink:href="#DejaVuSans-69" transform="translate(223.144531 0)"/>
     <use xlink:href="#DejaVuSans-65" transform="translate(250.927734 0)"/>
     <use xlink:href="#DejaVuSans-64" transform="translate(312.451172 0)"/>
    </g>
    <!-- Wastewater -->
    <g transform="translate(383.699077 335.778336) scale(0.14 -0.14)">
     <use xlink:href="#DejaVuSans-57"/>
     <use xlink:href="#DejaVuSans-61" transform="translate(92.501953 0)"/>
     <use xlink:href="#DejaVuSans-73" transform="translate(153.78125 0)"/>
     <use xlink:href="#DejaVuSans-74" transform="translate(205.880859 0)"/>
     <use xlink:href="#DejaVuSans-65" transform="translate(245.089844 0)"/>
     <use xlink:href="#DejaVuSans-77" transform="translate(306.613281 0)"/>
     <use xlink:href="#DejaVuSans-61" transform="translate(388.400391 0)"/>
     <use xlink:href="#DejaVuSans-74" transform="translate(449.679688 0)"/>
     <use xlink:href="#DejaVuSans-65" transform="translate(488.888672 0)"/>
     <use xlink:href="#DejaVuSans-72" transform="translate(550.412109 0)"/>
    </g>
   </g>
   <g id="text_9">
    <!-- 3,696 -->
    <g transform="translate(445.277256 298.512015) scale(0.14 -0.14)">
     <defs>
      <path id="DejaVuSans-Bold-36" d="M 2316 2303 
Q 2000 2303 1842 2098 
Q 1684 1894 1684 1484 
Q 1684 1075 1842 870 
Q 2000 666 2316 666 
Q 2634 666 2792 870 
Q 2950 1075 2950 1484 
Q 2950 1894 2792 2098 
Q 2634 2303 2316 2303 
z
M 3803 4544 
L 3803 3681 
Q 3506 3822 3243 3889 
Q 2981 3956 2731 3956 
Q 2194 3956 1894 3657 
Q 1594 3359 1544 2772 
Q 1750 2925 1990 3001 
Q 2231 3078 2516 3078 
Q 3231 3078 3670 2659 
Q 4109 2241 4109 1563 
Q 4109 813 3618 361 
Q 3128 -91 2303 -91 
Q 1394 -91 895 523 
Q 397 1138 397 2266 
Q 397 3422 980 4083 
Q 1563 4744 2578 4744 
Q 2900 4744 3203 4694 
Q 3506 4644 3803 4544 
z
" transform="scale(0.015625)"/>
     </defs>
     <use xlink:href="#DejaVuSans-Bold-33"/>
     <use xlink:href="#DejaVuSans-Bold-2c" transform="translate(69.580078 0)"/>
     <use xlink:href="#DejaVuSans-Bold-36" transform="translate(107.568359 0)"/>
     <use xlink:href="#DejaVuSans-Bold-39" transform="translate(177.148438 0)"/>
     <use xlink:href="#DejaVuSans-Bold-36" transform="translate(246.728516 0)"/>
    </g>
   </g>
   <g id="text_10">
    <!-- Exported -->
    <g transform="translate(532.650651 231.04757) scale(0.14 -0.14)">
     <defs>
      <path id="DejaVuSans-45" d="M 628 4666 
L 3578 4666 
L 3578 4134 
L 1259 4134 
L 1259 2753 
L 3481 2753 
L 3481 2222 
L 1259 2222 
L 1259 531 
L 3634 531 
L 3634 0 
L 628 0 
L 628 4666 
z
" transform="scale(0.015625)"/>
      <path id="DejaVuSans-78" d="M 3513 3500 
L 2247 1797 
L 3578 0 
L 2900 0 
L 1881 1375 
L 863 0 
L 184 0 
L 1544 1831 
L 300 3500 
L 978 3500 
L 1906 2253 
L 2834 3500 
L 3513 3500 
z
" transform="scale(0.015625)"/>
     </defs>
     <use xlink:href="#DejaVuSans-45"/>
     <use xlink:href="#DejaVuSans-78" transform="translate(63.183594 0)"/>
     <use xlink:href="#DejaVuSans-70" transform="translate(122.363281 0)"/>
     <use xlink:href="#DejaVuSans-6f" transform="translate(185.839844 0)"/>
     <use xlink:href="#DejaVuSans-72" transform="translate(247.021484 0)"/>
     <use xlink:href="#DejaVuSans-74" transform="translate(288.134766 0)"/>
     <use xlink:href="#DejaVuSans-65" transform="translate(327.34375 0)"/>
     <use xlink:href="#DejaVuSans-64" transform="translate(388.867188 0)"/>
    </g>
   </g>
   <g id="text_11">
    <!-- 5,146 -->
    <g transform="translate(483.434594 242.612612) scale(0.14 -0.14)">
     <use xlink:href="#DejaVuSans-Bold-35"/>
     <use xlink:href="#DejaVuSans-Bold-2c" transform="translate(69.580078 0)"/>
     <use xlink:href="#DejaVuSans-Bold-31" transform="translate(107.568359 0)"/>
     <use xlink:href="#DejaVuSans-Bold-34" transform="translate(177.148438 0)"/>
     <use xlink:href="#DejaVuSans-Bold-36" transform="translate(246.728516 0)"/>
    </g>
   </g>
   <g id="text_12">
    <!-- Phosphorous -->
    <g transform="translate(411.008139 147.200301) scale(0.18 -0.18)">
     <use xlink:href="#DejaVuSans-50"/>
     <use xlink:href="#DejaVuSans-68" transform="translate(60.302734 0)"/>
     <use xlink:href="#DejaVuSans-6f" transform="translate(123.681641 0)"/>
     <use xlink:href="#DejaVuSans-73" transform="translate(184.863281 0)"/>
     <use xlink:href="#DejaVuSans-70" transform="translate(236.962891 0)"/>
     <use xlink:href="#DejaVuSans-68" transform="translate(300.439453 0)"/>
     <use xlink:href="#DejaVuSans-6f" transform="translate(363.818359 0)"/>
     <use xlink:href="#DejaVuSans-72" transform="translate(425 0)"/>
     <use xlink:href="#DejaVuSans-6f" transform="translate(463.863281 0)"/>
     <use xlink:href="#DejaVuSans-75" transform="translate(525.044922 0)"/>
     <use xlink:href="#DejaVuSans-73" transform="translate(588.423828 0)"/>
    </g>
    <!-- Outputs (tons) -->
    <g transform="translate(403.393295 167.356364) scale(0.18 -0.18)">
     <defs>
      <path id="DejaVuSans-4f" d="M 2522 4238 
Q 1834 4238 1429 3725 
Q 1025 3213 1025 2328 
Q 1025 1447 1429 934 
Q 1834 422 2522 422 
Q 3209 422 3611 934 
Q 4013 1447 4013 2328 
Q 4013 3213 3611 3725 
Q 3209 4238 2522 4238 
z
M 2522 4750 
Q 3503 4750 4090 4092 
Q 4678 3434 4678 2328 
Q 4678 1225 4090 567 
Q 3503 -91 2522 -91 
Q 1538 -91 948 565 
Q 359 1222 359 2328 
Q 359 3434 948 4092 
Q 1538 4750 2522 4750 
z
" transform="scale(0.015625)"/>
     </defs>
     <use xlink:href="#DejaVuSans-4f"/>
     <use xlink:href="#DejaVuSans-75" transform="translate(78.710938 0)"/>
     <use xlink:href="#DejaVuSans-74" transform="translate(142.089844 0)"/>
     <use xlink:href="#DejaVuSans-70" transform="translate(181.298828 0)"/>
     <use xlink:href="#DejaVuSans-75" transform="translate(244.775391 0)"/>
     <use xlink:href="#DejaVuSans-74" transform="translate(308.154297 0)"/>
     <use xlink:href="#DejaVuSans-73" transform="translate(347.363281 0)"/>
     <use xlink:href="#DejaVuSans-20" transform="translate(399.462891 0)"/>
     <use xlink:href="#DejaVuSans-28" transform="translate(431.25 0)"/>
     <use xlink:href="#DejaVuSans-74" transform="translate(470.263672 0)"/>
     <use xlink:href="#DejaVuSans-6f" transform="translate(509.472656 0)"/>
     <use xlink:href="#DejaVuSans-6e" transform="translate(570.654297 0)"/>
     <use xlink:href="#DejaVuSans-73" transform="translate(634.033203 0)"/>
     <use xlink:href="#DejaVuSans-29" transform="translate(686.132812 0)"/>
    </g>
   </g>
  </g>
  <g id="axes_3">
   <g id="patch_7">
    <path d="M 762.170288 254.52 
C 762.170288 247.950799 760.876299 241.445475 758.362375 235.376325 
C 755.84845 229.307175 752.16348 223.792227 747.518354 219.147101 
C 742.873227 214.501974 737.35828 210.817004 731.28913 208.30308 
C 725.219979 205.789155 718.714656 204.495166 712.145455 204.495166 
C 705.576254 204.495166 699.07093 205.789155 693.001779 208.30308 
C 686.932629 210.817004 681.417682 214.501974 676.772555 219.147101 
C 672.127429 223.792227 668.442459 229.307175 665.928534 235.376325 
C 663.41461 241.445475 662.120621 247.950799 662.120621 254.52 
C 662.120621 261.089201 663.41461 267.594525 665.928534 273.663675 
C 668.442459 279.732825 672.127429 285.247773 676.772555 289.892899 
C 681.417682 294.538026 686.932629 298.222996 693.001779 300.73692 
C 699.07093 303.250845 705.576254 304.544834 712.145455 304.544834 
C 718.714656 304.544834 725.219979 303.250845 731.28913 300.73692 
C 737.35828 298.222996 742.873227 294.538026 747.518354 289.892899 
C 752.16348 285.247773 755.84845 279.732825 758.362375 273.663675 
C 760.876299 267.594525 762.170288 261.089201 762.170288 254.52 
M 712.145455 254.52 
z
" style="fill: #f08080"/>
   </g>
   <g id="matplotlib.axis_5"/>
   <g id="matplotlib.axis_6"/>
   <g id="text_13">
    <!-- 12,098 -->
    <g transform="translate(685.134205 295.90175) scale(0.14 -0.14)">
     <use xlink:href="#DejaVuSans-Bold-31"/>
     <use xlink:href="#DejaVuSans-Bold-32" transform="translate(69.580078 0)"/>
     <use xlink:href="#DejaVuSans-Bold-2c" transform="translate(139.160156 0)"/>
     <use xlink:href="#DejaVuSans-Bold-30" transform="translate(177.148438 0)"/>
     <use xlink:href="#DejaVuSans-Bold-39" transform="translate(246.728516 0)"/>
     <use xlink:href="#DejaVuSans-Bold-38" transform="translate(316.308594 0)"/>
    </g>
   </g>
   <g id="text_14">
    <!-- Unaccounted-for -->
    <g transform="translate(637.126236 147.200301) scale(0.18 -0.18)">
     <defs>
      <path id="DejaVuSans-55" d="M 556 4666 
L 1191 4666 
L 1191 1831 
Q 1191 1081 1462 751 
Q 1734 422 2344 422 
Q 2950 422 3222 751 
Q 3494 1081 3494 1831 
L 3494 4666 
L 4128 4666 
L 4128 1753 
Q 4128 841 3676 375 
Q 3225 -91 2344 -91 
Q 1459 -91 1007 375 
Q 556 841 556 1753 
L 556 4666 
z
" transform="scale(0.015625)"/>
      <path id="DejaVuSans-63" d="M 3122 3366 
L 3122 2828 
Q 2878 2963 2633 3030 
Q 2388 3097 2138 3097 
Q 1578 3097 1268 2742 
Q 959 2388 959 1747 
Q 959 1106 1268 751 
Q 1578 397 2138 397 
Q 2388 397 2633 464 
Q 2878 531 3122 666 
L 3122 134 
Q 2881 22 2623 -34 
Q 2366 -91 2075 -91 
Q 1284 -91 818 406 
Q 353 903 353 1747 
Q 353 2603 823 3093 
Q 1294 3584 2113 3584 
Q 2378 3584 2631 3529 
Q 2884 3475 3122 3366 
z
" transform="scale(0.015625)"/>
      <path id="DejaVuSans-2d" d="M 313 2009 
L 1997 2009 
L 1997 1497 
L 313 1497 
L 313 2009 
z
" transform="scale(0.015625)"/>
      <path id="DejaVuSans-66" d="M 2375 4863 
L 2375 4384 
L 1825 4384 
Q 1516 4384 1395 4259 
Q 1275 4134 1275 3809 
L 1275 3500 
L 2222 3500 
L 2222 3053 
L 1275 3053 
L 1275 0 
L 697 0 
L 697 3053 
L 147 3053 
L 147 3500 
L 697 3500 
L 697 3744 
Q 697 4328 969 4595 
Q 1241 4863 1831 4863 
L 2375 4863 
z
" transform="scale(0.015625)"/>
     </defs>
     <use xlink:href="#DejaVuSans-55"/>
     <use xlink:href="#DejaVuSans-6e" transform="translate(73.193359 0)"/>
     <use xlink:href="#DejaVuSans-61" transform="translate(136.572266 0)"/>
     <use xlink:href="#DejaVuSans-63" transform="translate(197.851562 0)"/>
     <use xlink:href="#DejaVuSans-63" transform="translate(252.832031 0)"/>
     <use xlink:href="#DejaVuSans-6f" transform="translate(307.8125 0)"/>
     <use xlink:href="#DejaVuSans-75" transform="translate(368.994141 0)"/>
     <use xlink:href="#DejaVuSans-6e" transform="translate(432.373047 0)"/>
     <use xlink:href="#DejaVuSans-74" transform="translate(495.751953 0)"/>
     <use xlink:href="#DejaVuSans-65" transform="translate(534.960938 0)"/>
     <use xlink:href="#DejaVuSans-64" transform="translate(596.484375 0)"/>
     <use xlink:href="#DejaVuSans-2d" transform="translate(659.960938 0)"/>
     <use xlink:href="#DejaVuSans-66" transform="translate(696.044922 0)"/>
     <use xlink:href="#DejaVuSans-6f" transform="translate(731.25 0)"/>
     <use xlink:href="#DejaVuSans-72" transform="translate(792.431641 0)"/>
    </g>
    <!-- Phosphorous (tons) -->
    <g transform="translate(625.18858 167.356364) scale(0.18 -0.18)">
     <use xlink:href="#DejaVuSans-50"/>
     <use xlink:href="#DejaVuSans-68" transform="translate(60.302734 0)"/>
     <use xlink:href="#DejaVuSans-6f" transform="translate(123.681641 0)"/>
     <use xlink:href="#DejaVuSans-73" transform="translate(184.863281 0)"/>
     <use xlink:href="#DejaVuSans-70" transform="translate(236.962891 0)"/>
     <use xlink:href="#DejaVuSans-68" transform="translate(300.439453 0)"/>
     <use xlink:href="#DejaVuSans-6f" transform="translate(363.818359 0)"/>
     <use xlink:href="#DejaVuSans-72" transform="translate(425 0)"/>
     <use xlink:href="#DejaVuSans-6f" transform="translate(463.863281 0)"/>
     <use xlink:href="#DejaVuSans-75" transform="translate(525.044922 0)"/>
     <use xlink:href="#DejaVuSans-73" transform="translate(588.423828 0)"/>
     <use xlink:href="#DejaVuSans-20" transform="translate(640.523438 0)"/>
     <use xlink:href="#DejaVuSans-28" transform="translate(672.310547 0)"/>
     <use xlink:href="#DejaVuSans-74" transform="translate(711.324219 0)"/>
     <use xlink:href="#DejaVuSans-6f" transform="translate(750.533203 0)"/>
     <use xlink:href="#DejaVuSans-6e" transform="translate(811.714844 0)"/>
     <use xlink:href="#DejaVuSans-73" transform="translate(875.09375 0)"/>
     <use xlink:href="#DejaVuSans-29" transform="translate(927.193359 0)"/>
    </g>
   </g>
  </g>
 </g>
</svg>
